<svg width="49" height="30" fill="none" xmlns="http://www.w3.org/2000/svg"><path d="M44.711 1.25c1.39 0 2.526 1.125 2.526 2.5v22.5c0 1.375-1.137 2.5-2.526 2.5H4.29c-1.39 0-2.526-1.125-2.526-2.5V3.75c0-1.375 1.137-2.5 2.526-2.5h40.421z" fill="#FF71BE"/><path d="M11.832 12.835l.978 2.345h-1.948l.97-2.345zm20.305.097h-3.76v1.034h3.7v1.549h-3.693v1.152h3.76v.924l2.624-2.806-2.623-2.925-.008 1.072zm-17.764-2.925h5.047l1.12 2.42L21.578 10h13.1l1.361 1.488L37.447 10h6.017l-4.445 4.815 4.4 4.785h-6.107l-1.361-1.488L34.53 19.6H13.17l-.624-1.488h-1.428l-.625 1.488h-4.94l4.15-9.6h4.333l.337.008zm10.943 1.348h-2.828l-1.895 4.42-2.052-4.42h-2.807v6.012l-2.602-6.012h-2.518l-3.009 6.89H9.57l.624-1.488h3.279l.624 1.488h3.435v-4.919l2.212 4.927h1.503l2.198-4.912v4.913h1.842l.03-6.9v.001zm11.798 3.46l3.197-3.46H38.01l-2.023 2.157-1.955-2.157h-7.445v6.898h7.339l2.038-2.173 1.956 2.173h2.368l-3.173-3.438h-.001z" fill="#fff"/></svg>