<svg width="49" height="30" fill="none" xmlns="http://www.w3.org/2000/svg"><path d="M43.937 1h.478l.39.006c.226.006.491.019.739.062.214.039.394.097.567.184.346.174.627.452.802.795.088.17.146.347.185.561a4.9 4.9 0 01.062.73c.004.128.006.255.006.385l.001.474v22.082c-.001.128-.003.255-.007.383a4.933 4.933 0 01-.063.733 1.923 1.923 0 01-.184.559 1.82 1.82 0 01-.804.794 1.994 1.994 0 01-.564.183 5.19 5.19 0 01-.736.062c-.13.003-.26.005-.394.006H4.583l-.386-.005a5.204 5.204 0 01-.74-.063 1.999 1.999 0 01-.568-.184 1.814 1.814 0 01-.8-.793 1.949 1.949 0 01-.185-.562 4.84 4.84 0 01-.063-.73 18.586 18.586 0 01-.006-.384l-.001-.375V3.721l.006-.384c.007-.224.019-.486.064-.732.032-.195.095-.384.185-.561a1.826 1.826 0 01.802-.794c.178-.088.37-.15.566-.183.248-.043.513-.056.74-.062L4.584 1h39.353z" fill="#fff"/><path d="M13.27 10.127c.402-.497.674-1.164.602-1.846-.588.03-1.305.384-1.72.881-.373.426-.703 1.121-.617 1.774.66.057 1.32-.326 1.735-.809zm.595.937c-.958-.056-1.772.538-2.23.538-.458 0-1.158-.51-1.916-.496a2.83 2.83 0 00-2.402 1.444c-1.03 1.756-.272 4.36.73 5.79.486.708 1.072 1.486 1.843 1.458.73-.028 1.016-.467 1.902-.467.886 0 1.144.467 1.916.453.8-.014 1.301-.708 1.787-1.415.558-.807.786-1.586.8-1.628-.014-.014-1.544-.595-1.558-2.336-.014-1.458 1.201-2.152 1.258-2.195-.686-1.004-1.758-1.118-2.13-1.146m9.551-1.974c2.082 0 3.532 1.421 3.532 3.489 0 2.075-1.48 3.503-3.585 3.503h-2.305v3.628h-1.665V9.09h4.023zm-2.358 5.608h1.911c1.45 0 2.276-.772 2.276-2.112 0-1.339-.826-2.104-2.268-2.104h-1.919v4.216zm6.303 2.812c0-1.362 1.049-2.142 2.982-2.26l2.075-.124v-.59c0-.86-.572-1.331-1.591-1.331-.84 0-1.45.427-1.577 1.081h-1.502c.045-1.375 1.353-2.376 3.123-2.376 1.904 0 3.146.986 3.146 2.517v5.283h-1.54v-1.273h-.036c-.44.832-1.406 1.354-2.455 1.354-1.546 0-2.625-.912-2.625-2.281zm5.057-.684v-.597l-1.852.118c-1.041.066-1.583.449-1.583 1.118 0 .648.565 1.068 1.45 1.068 1.13 0 1.985-.714 1.985-1.707zm3.014 5.724v-1.272c.104.014.357.029.49.029.737 0 1.153-.309 1.406-1.104l.149-.47-2.819-7.728h1.74l1.964 6.27h.037l1.963-6.27h1.696l-2.923 8.117c-.67 1.862-1.435 2.473-3.056 2.473-.127 0-.536-.014-.647-.044z" fill="#FF71BE"/></svg>