<svg width="49" height="30" fill="none" xmlns="http://www.w3.org/2000/svg"><path d="M44.711 1.25c1.39 0 2.526 1.125 2.526 2.5v22.5c0 1.375-1.137 2.5-2.526 2.5H4.29c-1.39 0-2.526-1.125-2.526-2.5V3.75c0-1.375 1.137-2.5 2.526-2.5h40.421z" fill="#fff"/><path d="M15.658 15v4.625c0 .375-.252.375-.631.25-2.4-1-3.79-4.125-2.905-6.75.505-1.375 1.515-2.5 2.905-3 .505-.25.631-.125.631.25V15zm2.527 0v-4.625c0-.375 0-.375.379-.25 2.652 1 4.042 4.125 3.031 6.75-.505 1.375-1.516 2.5-2.905 3-.505.25-.505.125-.505-.25V15zm9.094-8.75H16.922c4.8 0 8.589 3.875 8.589 8.75s-3.79 8.75-8.59 8.75H27.28c4.8 0 8.59-3.875 8.59-8.75s-3.79-8.75-8.59-8.75z" fill="#FF71BE"/></svg>