<svg width="49" height="30" fill="none" xmlns="http://www.w3.org/2000/svg"><path d="M44.711 1.25c1.39 0 2.526 1.125 2.526 2.5v22.5c0 1.375-1.137 2.5-2.526 2.5H4.29c-1.39 0-2.526-1.125-2.526-2.5V3.75c0-1.375 1.137-2.5 2.526-2.5h40.421z" fill="#fff"/><path d="M5.009 8.95H3.025v6.875H5.01c1.048 0 1.806-.25 2.475-.788A3.424 3.424 0 008.748 12.4c-.013-2.038-1.542-3.45-3.74-3.45zM6.6 14.125c-.43.375-.972.55-1.857.55h-.366v-4.55h.366c.872 0 1.402.15 1.857.55.468.412.745 1.05.745 1.712 0 .663-.277 1.325-.745 1.738zM9.366 8.95h1.352v6.875H9.366V8.95zm4.662 2.637c-.809-.3-1.049-.5-1.049-.862 0-.438.43-.763 1.01-.763.405 0 .746.163 1.087.563l.707-.913a3.073 3.073 0 00-2.046-.762c-1.225 0-2.173.85-2.173 1.975 0 .95.442 1.437 1.706 1.887.53.188.795.313.934.388.266.175.404.425.404.712 0 .563-.442.975-1.048.975-.644 0-1.162-.325-1.478-.912l-.871.837c.619.913 1.377 1.313 2.4 1.313 1.402 0 2.4-.925 2.4-2.263.025-1.112-.442-1.612-1.983-2.175zm2.425.813c0 2.025 1.604 3.587 3.663 3.587.581 0 1.086-.112 1.692-.4v-1.575c-.543.538-1.023.75-1.629.75-1.364 0-2.337-.975-2.337-2.375 0-1.325.998-2.362 2.274-2.362.644 0 1.137.225 1.692.775V9.225c-.593-.3-1.086-.425-1.667-.425-2.033 0-3.688 1.6-3.688 3.6zm16.118 1.175L30.714 8.95h-1.478L32.179 16h.733l2.993-7.05H34.44l-1.87 4.625zm3.953 2.25h3.84v-1.163h-2.488v-1.85h2.4V11.65h-2.4v-1.525h2.488V8.95h-3.84v6.875zm9.209-4.838c0-1.287-.897-2.025-2.463-2.025h-2.01v6.875h1.352v-2.762h.177l1.87 2.762h1.666l-2.185-2.9c1.023-.212 1.592-.9 1.592-1.95zm-2.729 1.138h-.391v-2.088h.417c.846 0 1.3.35 1.3 1.025 0 .688-.454 1.063-1.326 1.063zm-17.038 3.95c.982 0 1.924-.386 2.618-1.073a3.645 3.645 0 001.084-2.59c0-.972-.39-1.904-1.084-2.591a3.722 3.722 0 00-2.618-1.073c-.982 0-1.924.386-2.618 1.073a3.644 3.644 0 00-1.084 2.59c0 .972.39 1.904 1.084 2.591a3.722 3.722 0 002.618 1.073z" fill="#FF71BE"/><path opacity=".65" d="M25.966 16.075c.982 0 1.924-.386 2.618-1.073a3.645 3.645 0 001.084-2.59c0-.972-.39-1.904-1.084-2.591a3.722 3.722 0 00-2.618-1.073c-.982 0-1.924.386-2.618 1.073a3.644 3.644 0 00-1.084 2.59c0 .972.39 1.904 1.084 2.591a3.722 3.722 0 002.618 1.073z" fill="#FF71BE"/><path d="M46.693 9.382c0-.125-.088-.187-.227-.187h-.202v.6h.151v-.238l.177.238h.177l-.202-.25c.076-.013.126-.075.126-.163zm-.252.088h-.026v-.163h.026c.075 0 .113.025.113.075 0 .063-.038.088-.114.088z" fill="#FF71BE"/><path d="M46.492 8.97a.53.53 0 00-.531.525.531.531 0 001.061 0 .531.531 0 00-.53-.525zm0 .962a.434.434 0 01-.43-.437c0-.238.19-.438.43-.438.227 0 .416.2.416.438 0 .237-.19.437-.416.437zm.745 6.298s-12.518 8.611-35.4 12.52H44.71a2.54 2.54 0 001.78-.725 2.487 2.487 0 00.746-1.755l.03-3.775-.028-6.264v-.001z" fill="#FF71BE"/></svg>