<svg version="1.1" id="Layer_1" xmlns="http://www.w3.org/2000/svg" xmlns:xlink="http://www.w3.org/1999/xlink" x="0" y="0" viewBox="0 0 1339.4 598.8" xml:space="preserve"><style>.st1{fill:#ff71be}</style><defs><path id="SVGID_1_" transform="rotate(-58.177 18.882 579.868)" d="M5.2 566.2h27.4v27.4H5.2z"/></defs><clipPath id="SVGID_2_"><use xlink:href="#SVGID_1_" overflow="visible"/></clipPath><g clip-path="url(#SVGID_2_)"><path class="st1" d="M25.6 568.9l-6.8 2.7-6.1-4c-.6-.4-1.4-.4-2.1-.1-.6.4-1 1.1-1 1.8l.5 7.3-5.7 4.5c-.6.5-.8 1.2-.7 1.9.2.7.7 1.3 1.4 1.5l7.1 1.8 2.6 6.8c.3.7.9 1.2 1.6 1.3.7.1 1.4-.3 1.8-.9l3.9-6.2 7.3-.3c.7 0 1.2-.4 1.6-.9.1-.1.1-.2.1-.2.3-.7.2-1.5-.3-2l-4.7-5.6 1.9-7c.2-.7 0-1.5-.6-2-.3-.6-1.1-.7-1.8-.4z"/></g><defs><path id="SVGID_3_" transform="rotate(-58.177 1286.851 353.86)" d="M1273.2 340.2h27.4v27.4h-27.4z"/></defs><clipPath id="SVGID_4_"><use xlink:href="#SVGID_3_" overflow="visible"/></clipPath><g clip-path="url(#SVGID_4_)"><path class="st1" d="M1293.6 342.9l-6.8 2.7-6.1-4c-.6-.4-1.4-.4-2.1-.1-.6.4-1 1.1-1 1.8l.5 7.3-5.7 4.5c-.6.5-.8 1.2-.7 1.9.2.7.7 1.3 1.4 1.5l7.1 1.8 2.6 6.8c.3.7.9 1.2 1.6 1.3.7.1 1.4-.3 1.8-.9l3.9-6.2 7.3-.3c.7 0 1.2-.4 1.6-.9 0-.1.1-.2.1-.2.3-.7.2-1.5-.3-2l-4.7-5.6 1.9-7c.2-.7 0-1.5-.6-2-.3-.6-1.1-.7-1.8-.4z"/></g><defs><path id="SVGID_5_" transform="rotate(-58.177 285.872 18.876)" d="M272.2 5.2h27.4v27.4h-27.4z"/></defs><clipPath id="SVGID_6_"><use xlink:href="#SVGID_5_" overflow="visible"/></clipPath><g clip-path="url(#SVGID_6_)"><path d="M292.6 7.9l-6.8 2.7-6.1-4c-.6-.4-1.4-.4-2.1-.1-.6.4-1 1.1-1 1.8l.5 7.3-5.7 4.5c-.6.5-.8 1.2-.7 1.9.2.7.7 1.3 1.4 1.5l7.1 1.8 2.6 6.8c.3.7.9 1.2 1.6 1.3.7.1 1.4-.3 1.8-.9l3.9-6.2 7.3-.3c.6 0 1.2-.4 1.6-.9.1-.1.1-.2.1-.2.3-.7.2-1.5-.3-2l-4.7-5.6 1.9-7c.2-.7 0-1.5-.6-2-.3-.6-1.1-.7-1.8-.4z" fill="#ffb2e0"/></g><path d="M1310.1 209.7c1-3-.7-6.3-3.8-7.3-.1 0-.2 0-.3-.1 0-.1.1-.1.2-.2 1.9-2.6 1.3-6.2-1.3-8.1-2.6-1.9-6.3-1.3-8.2 1.3-.1.1-.1.2-.1.2-.1-.1-.1-.2-.2-.2-1.9-2.6-5.6-3.1-8.2-1.3-2.6 1.9-3.2 5.5-1.3 8 .1.1.1.2.2.2-.1 0-.2.1-.3.1-3.1 1-4.7 4.3-3.7 7.3 1 3.1 4.3 4.7 7.3 3.7.1 0 .2-.1.2-.1v.3c0 3.2 2.6 5.8 5.8 5.8 3.2 0 5.8-2.6 5.8-5.8v-.3c.1 0 .2.1.2.1 3.4 1.1 6.7-.5 7.7-3.6zm-1264 95c1-3-.7-6.3-3.8-7.3-.1 0-.2 0-.3-.1 0-.1.1-.1.2-.2 1.9-2.6 1.3-6.2-1.3-8.1-2.6-1.9-6.3-1.3-8.2 1.3-.1.1-.1.2-.1.2-.1-.1-.1-.2-.2-.2-1.9-2.6-5.5-3.1-8.2-1.3-2.6 1.9-3.2 5.5-1.3 8 .1.1.1.2.2.2-.1 0-.2.1-.3.1-3.1 1-4.7 4.3-3.7 7.3 1 3.1 4.3 4.7 7.4 3.7.1 0 .2-.1.2-.1v.3c0 3.2 2.6 5.8 5.8 5.8 3.2 0 5.8-2.6 5.8-5.8v-.3c.1 0 .2.1.2.1 3.4 1.1 6.6-.5 7.6-3.6z" fill="#b7ebe7"/><defs><path id="SVGID_7_" d="M38 59h27.4v27.4H38z"/></defs><clipPath id="SVGID_8_"><use xlink:href="#SVGID_7_" overflow="visible"/></clipPath><g clip-path="url(#SVGID_8_)"><path d="M51.7 86.4c7.6 0 13.7-6.1 13.7-13.7S59.3 59 51.7 59 38 65.1 38 72.7s6.1 13.7 13.7 13.7z" fill="#ffef96"/></g><defs><path id="SVGID_9_" d="M1312 533h27.4v21.6H1312z"/></defs><clipPath id="SVGID_10_"><use xlink:href="#SVGID_9_" overflow="visible"/></clipPath><g clip-path="url(#SVGID_10_)"><path d="M1338.6 534.9c1.4 2 .9 4.7-1.1 6.1l-18.5 12.8c-2 1.4-4.8.9-6.2-1.1-1.4-2-.9-4.7 1.1-6.1l18.5-12.8c2-1.4 4.8-.9 6.2 1.1z" fill="#ffce9e"/></g></svg>