<svg width="48" height="30" fill="none" xmlns="http://www.w3.org/2000/svg"><path d="M43.789 1.25c1.36 0 2.474 1.125 2.474 2.5v22.5c0 1.375-1.113 2.5-2.474 2.5H4.21c-1.36 0-2.474-1.125-2.474-2.5V3.75c0-1.375 1.113-2.5 2.474-2.5h39.579z" fill="#fff"/><path d="M22.878 14.97v4H21.62V9.095h3.329a2.998 2.998 0 012.16.865 2.848 2.848 0 01.895 1.986 2.878 2.878 0 01-.759 2.044l-.136.145a3.01 3.01 0 01-2.16.842l-2.07-.007zm0-4.665v3.485h2.1c.467.015.917-.169 1.243-.505a1.755 1.755 0 00.34-1.886 1.735 1.735 0 00-.634-.77 1.707 1.707 0 00-.949-.287l-2.1-.037zm8.02 1.685a3.119 3.119 0 012.199.766c.55.537.844 1.287.804 2.061v4.168h-1.199v-.958h-.06a2.4 2.4 0 01-.882.86 2.367 2.367 0 01-1.187.304 2.667 2.667 0 01-1.85-.666 2.08 2.08 0 01-.759-1.655 2.027 2.027 0 01.758-1.67 3.371 3.371 0 012.1-.644 3.664 3.664 0 011.843.414v-.26a1.43 1.43 0 00-.515-1.127 1.741 1.741 0 00-1.212-.46 1.895 1.895 0 00-.931.235 1.919 1.919 0 00-.7.662l-1.108-.705c.3-.435.706-.786 1.179-1.018a3.05 3.05 0 011.52-.307zm-1.592 4.91a.996.996 0 00.417.827 1.5 1.5 0 00.97.329 2.012 2.012 0 001.418-.59 1.9 1.9 0 00.592-1.379 2.512 2.512 0 00-1.638-.467 2.106 2.106 0 00-1.274.367 1.098 1.098 0 00-.485.913zm11.485-4.688L36.6 21.95h-1.297l1.585-3.41-2.751-6.328H35.5l1.994 4.857 1.94-4.857h1.357zm-22.992 1.893c0-.385-.03-.77-.09-1.15h-5.307v2.184h3.032a2.635 2.635 0 01-1.113 1.716v1.418h1.81a5.545 5.545 0 001.271-1.906 5.593 5.593 0 00.397-2.262z" fill="#FF71BE"/><path d="M12.408 19.651a5.35 5.35 0 003.723-1.37l-1.813-1.426a3.381 3.381 0 01-2.967.35 3.4 3.4 0 01-1.294-.83 3.447 3.447 0 01-.803-1.32H7.396v1.463a5.641 5.641 0 002.066 2.286 5.56 5.56 0 002.946.847z" fill="#FF71BE"/><path d="M9.255 15.063a3.42 3.42 0 010-2.169v-1.462H7.397a5.68 5.68 0 000 5.093l1.858-1.462z" fill="#FF71BE"/><path d="M12.408 10.55a3.01 3.01 0 012.152.85l1.608-1.616a5.374 5.374 0 00-3.79-1.479 5.56 5.56 0 00-2.928.852 5.641 5.641 0 00-2.054 2.273l1.858 1.464a3.392 3.392 0 011.204-1.684 3.334 3.334 0 011.95-.66z" fill="#FF71BE"/></svg>