<svg xmlns="http://www.w3.org/2000/svg" viewBox="0 0 288 48.3"><path d="M54.6 39.3c-.1-.1-.1-.3-.1-.4 0-.1 0-.3.1-.4.1-.1.1-.3.3-.4.1-.1.2-.2.4-.2.1-.1.3-.1.4-.1.2 0 .5.1.7.2.2.1.3.3.4.6l2 6.3 2-6.2c.2-.5.6-.9 1.1-.9h.2c.6 0 1 .4 1.1.9l2 6.2 2-6.3c.1-.2.2-.4.4-.6.2-.1.4-.2.7-.2.1 0 .3 0 .4.1.1.1.3.1.4.2.1.1.2.2.2.4.1.1.1.3.1.4 0 .1 0 .3-.1.4l-2.9 8c-.2.6-.6.9-1.2.9H65c-.5 0-.9-.3-1.2-.9l-2-5.9-2 5.9c-.2.6-.6.9-1.2.9h-.2c-.5 0-1-.4-1.2-.9l-2.6-8zm17.7-.4c0-.3.1-.6.3-.8.2-.2.5-.3.8-.3.3 0 .6.1.8.3.2.2.3.5.3.8v3h4.1v-3c0-.3.1-.6.3-.8.2-.2.5-.3.8-.3.3 0 .6.1.8.3.2.2.3.5.3.8v8.2c0 .2 0 .3-.1.4-.1.1-.1.3-.2.4-.1.1-.2.2-.4.3s-.3.1-.4.1c-.2 0-.3 0-.4-.1l-.3-.3c-.1-.1-.2-.2-.2-.4-.1-.1-.1-.3-.1-.4V44h-4.1v3.1c0 .3-.1.6-.3.8-.2.2-.5.3-.8.3s-.6-.1-.8-.3c-.2-.2-.3-.5-.3-.8l-.1-8.2zM84.5 47v-8c0-.1 0-.3.1-.4s.1-.3.2-.4c.1-.1.2-.2.4-.2.1-.1.3-.1.4-.1h5.7c.3 0 .5.1.7.3.2.2.3.4.3.7 0 .1 0 .3-.1.4-.1.1-.1.2-.2.3-.1.1-.2.2-.3.2-.1 0-.3.1-.4.1h-4.5V42h3.9c.3 0 .5.1.7.3.2.2.3.4.3.7 0 .1 0 .3-.1.4-.1.1-.1.2-.2.3-.1.1-.2.2-.3.2-.1 0-.3.1-.4.1h-3.9v2.1h4.6c.3 0 .5.1.7.3.2.2.3.4.3.7 0 .1 0 .3-.1.4-.1.1-.1.2-.2.3-.1.1-.2.2-.3.2-.1 0-.3.1-.4.1h-5.7c-.1 0-.3 0-.4-.1-.1-.1-.3-.1-.4-.2-.1-.1-.2-.2-.2-.4-.2-.1-.2-.3-.2-.4zm10.9-8c0-.1 0-.3.1-.4s.1-.3.2-.4c.1-.1.2-.2.4-.2.1-.1.3-.1.4-.1h3.5c1.3 0 2.3.4 3 1 .6.6.9 1.4.9 2.3 0 1.6-.8 2.6-2 3.1l1.6 1.9c.2.3.4.5.4.9 0 .1 0 .3-.1.4-.1.1-.1.2-.2.3s-.2.2-.3.2c-.1.1-.3.1-.4.1-.5 0-.8-.2-1.1-.6l-2.2-2.8h-1.8v2.2c0 .3-.1.6-.3.8-.2.2-.5.3-.8.3-.3 0-.6-.1-.8-.3-.2-.2-.3-.5-.3-.8V39zm4.5 3.9c1.1 0 1.7-.6 1.7-1.4 0-1-.7-1.5-1.8-1.5h-2.2v2.9h2.3zM107 47v-8c0-.1 0-.3.1-.4.1-.1.1-.3.2-.4.1-.1.2-.2.4-.2.1-.1.3-.1.4-.1h5.7c.3 0 .5.1.7.3.2.2.3.4.3.7 0 .1 0 .3-.1.4-.1.1-.1.2-.2.3-.1.1-.2.2-.3.2-.1 0-.3.1-.4.1h-4.6V42h3.9c.3 0 .5.1.7.3.2.2.3.4.3.7 0 .1 0 .3-.1.4-.1.1-.1.2-.2.3-.1.1-.2.2-.3.2-.1 0-.3.1-.4.1h-3.9v2.1h4.6c.3 0 .5.1.7.3.2.2.3.4.3.7 0 .1 0 .3-.1.4-.1.1-.1.2-.2.3-.1.1-.2.2-.3.2-.1 0-.3.1-.4.1h-5.7c-.1 0-.3 0-.4-.1-.1-.1-.3-.1-.4-.2-.1-.1-.2-.2-.2-.4 0-.1-.1-.3-.1-.4zm16.4-8.1c0-.3.1-.6.3-.8.2-.2.5-.3.8-.3s.6.1.8.3c.2.2.3.5.3.8v3h4.1v-3c0-.3.1-.6.3-.8.2-.2.5-.3.8-.3.3 0 .6.1.8.3.2.2.3.5.3.8v8.2c0 .1 0 .3-.1.4-.1.1-.1.3-.2.4-.1.1-.2.2-.4.2-.1.1-.3.1-.4.1-.1 0-.3 0-.4-.1-.1-.1-.3-.1-.4-.2-.1-.1-.2-.2-.2-.4-.1-.1-.1-.3-.1-.4V44h-4.1v3.1c0 .3-.1.6-.3.8-.2.2-.5.3-.8.3s-.6-.1-.8-.3c-.2-.2-.3-.5-.3-.8v-8.2zm11.6 7.8l3.6-8.1c.2-.6.7-.9 1.3-.9h.1c.6 0 1.1.3 1.3.9l3.6 8.1c.1.1.1.3.1.5 0 .1 0 .3-.1.4-.1.1-.1.3-.2.4s-.2.2-.3.2c-.1.1-.3.1-.4.1-.5 0-.9-.3-1.1-.8l-.7-1.6h-4.5l-.7 1.7c-.1.2-.2.4-.4.5-.2.1-.4.2-.6.2-.1 0-.3 0-.4-.1-.1-.1-.2-.1-.3-.2-.1-.1-.2-.2-.2-.3-.1-.1-.1-.3-.1-.4-.1-.3-.1-.5 0-.6zm6.3-2.9l-1.4-3.4-1.4 3.4h2.8zm6.5-4.8c0-.1 0-.3.1-.4s.1-.3.2-.4c.1-.1.2-.2.4-.2.1-.1.3-.1.4-.1h3c2.4 0 3.9 1.4 3.9 3.5 0 2.4-1.8 3.6-4.1 3.6H150v2c0 .1 0 .3-.1.4-.1.1-.1.3-.2.4-.1.1-.2.2-.4.2-.1.1-.3.1-.4.1-.1 0-.3 0-.4-.1-.1-.1-.3-.1-.4-.2-.1-.1-.2-.2-.2-.4-.1-.1-.1-.3-.1-.4v-8zm4.1 4.1c1.1 0 1.8-.7 1.8-1.6 0-1-.7-1.5-1.8-1.5h-1.7v3.1h1.7zm6.8-4.1c0-.1 0-.3.1-.4s.1-.3.2-.4c.1-.1.2-.2.4-.2.1-.1.3-.1.4-.1h3c2.4 0 3.9 1.4 3.9 3.5 0 2.4-1.8 3.6-4.1 3.6h-1.7v2c0 .1 0 .3-.1.4-.1.1-.1.3-.2.4-.1.1-.2.2-.4.2-.1.1-.3.1-.4.1-.1 0-.3 0-.4-.1-.1-.1-.3-.1-.4-.2-.1-.1-.2-.2-.2-.4-.1-.1-.1-.3-.1-.4v-8zm4 4.1c1.1 0 1.8-.7 1.8-1.6 0-1-.7-1.5-1.8-1.5H161v3.1h1.7zm9.5 1.1l-3.3-4.5c-.2-.2-.3-.5-.3-.8 0-.1 0-.3.1-.4.1-.1.1-.3.2-.4.1-.1.2-.2.4-.2.1-.1.3-.1.4-.1.5 0 .8.3 1.1.7l2.5 3.6 2.5-3.6c.3-.4.6-.7 1.1-.7.1 0 .3 0 .4.1.1.1.3.1.4.2.1.1.2.2.2.4.1.1.1.3.1.4 0 .3-.1.6-.3.8l-3.3 4.5v3c0 .2 0 .3-.1.4-.1.1-.1.3-.2.4-.1.1-.2.2-.4.3-.1.1-.3.1-.4.1s-.3 0-.4-.1c-.1-.1-.3-.1-.4-.3-.1-.1-.2-.2-.2-.4-.1-.1-.1-.3-.1-.4v-3zm13.9-5.3c0-.1 0-.3.1-.4.1-.1.1-.3.2-.4.1-.1.2-.2.4-.2.1-.1.3-.1.4-.1.1 0 .3 0 .4.1.1.1.3.1.4.2.1.1.2.2.2.4s.1.3.1.4V46h4.2c.3 0 .5.1.7.3s.3.5.3.7c0 .3-.1.5-.3.7-.2.2-.5.3-.7.3h-5.3c-.1 0-.3 0-.4-.1-.1-.1-.3-.1-.4-.2-.1-.1-.2-.2-.2-.4-.1-.1-.1-.3-.1-.4v-8zm10.2 0c0-.1 0-.3.1-.4.1-.1.1-.3.2-.4.1-.1.2-.2.4-.2.1-.1.3-.1.4-.1.1 0 .3 0 .4.1.1.1.3.1.4.2.1.1.2.2.2.4.1.1.1.3.1.4v8.2c0 .1 0 .3-.1.4-.1.1-.1.3-.2.4-.1.1-.2.2-.4.2-.1.1-.3.1-.4.1-.1 0-.3 0-.4-.1-.1-.1-.3-.1-.4-.2-.1-.1-.2-.2-.2-.4-.1-.1-.1-.3-.1-.4v-8.2zm8.7 8.5l-3.3-7.9c-.1-.2-.1-.4-.1-.5 0-.1 0-.3.1-.4.1-.1.1-.3.2-.4.1-.1.2-.2.4-.2.1-.1.3-.1.4-.1.2 0 .5.1.7.2.2.1.4.3.4.6l2.6 6.6 2.6-6.7c.1-.2.2-.4.4-.5.2-.1.4-.2.6-.2.1 0 .3 0 .4.1.1.1.3.1.4.2.1.1.2.2.2.4.1.1.1.3.1.4 0 .2 0 .3-.1.5l-3.3 8c-.2.6-.7.9-1.3.9h-.1c-.7-.1-1.1-.4-1.3-1zm8.9-.4v-8c0-.1 0-.3.1-.4s.1-.3.2-.4c.1-.1.2-.2.4-.2.1-.1.3-.1.4-.1h5.7c.3 0 .5.1.7.3.2.2.3.4.3.7 0 .1 0 .3-.1.4-.1.1-.1.2-.2.3-.1.1-.2.2-.3.2-.1 0-.3.1-.4.1h-4.6V42h3.9c.3 0 .5.1.7.3.2.2.3.4.3.7 0 .1 0 .3-.1.4-.1.1-.1.2-.2.3-.1.1-.2.2-.3.2-.1 0-.3.1-.4.1h-3.9v2.1h4.6c.3 0 .5.1.7.3.2.2.3.4.3.7 0 .1 0 .3-.1.4-.1.1-.1.2-.2.3-.1.1-.2.2-.3.2-.1 0-.3.1-.4.1H215c-.1 0-.3 0-.4-.1-.1-.1-.3-.1-.4-.2-.1-.1-.2-.2-.2-.4 0-.1-.1-.3-.1-.4zm10.7 0c-.1-.1-.2-.2-.3-.4-.1-.1-.1-.3-.1-.5 0-.1 0-.3.1-.4.1-.1.1-.2.2-.3.1-.1.2-.2.3-.2.1-.1.3-.1.4-.1.2 0 .5.1.6.2.8.6 1.6.9 2.6.9.9 0 1.5-.4 1.5-1s-.4-.9-2.1-1.3c-2.1-.5-3.4-1.1-3.4-3.1 0-1.9 1.5-3.1 3.6-3.1 1.1 0 2.3.3 3.2.9.2.1.3.2.4.4.1.2.1.3.1.5 0 .1 0 .3-.1.4-.1.1-.1.2-.2.3-.1.1-.2.2-.3.2-.1.1-.3.1-.4.1-.2 0-.4-.1-.6-.2-.7-.4-1.4-.7-2.1-.7-.9 0-1.3.4-1.3.9 0 .7.4.9 2.2 1.3 2.1.5 3.2 1.3 3.2 3.1 0 2-1.5 3.2-3.8 3.2-1.2.2-2.6-.3-3.7-1.1z" fill="#ffb2e0"/><path d="M282.8 3.8l-.1-.2V1.3h-.7c-.2 0-.3-.1-.3-.3 0-.2.1-.3.3-.3h2.1c.2 0 .3.1.3.3s-.1.3-.3.3h-.7v2.2l-.1.2-.3.1h-.2zm4.9-3l.1.2v2.5l-.1.2-.2.1-.2-.1-.1-.2V2l-.6 1.2-.1.2-.2.1-.2-.1-.1-.2-.7-1.2v1.5l-.1.2-.2.1-.2-.1-.1-.2V1l.1-.2.2-.1c.1 0 .1 0 .2.1.1 0 .1.1.1.2l.9 1.7.9-1.7c0-.1.1-.1.1-.2.1 0 .1-.1.2-.1l.3.1M.2 21.4l1.2-2c.1-.1.1-.2.2-.2 0-.1.1-.2.2-.2h.3c.1 0 .2.1.3.1.2.1 2.8 2 4.9 2 1.7 0 3-1.1 3-2.5 0-1.7-1.4-2.8-4.1-3.9-3-1.2-6.1-3.2-6.1-7 0-2.9 2.1-6.2 7.3-6.2 3.3 0 5.8 1.7 6.5 2.2.3.2.4.7.2 1.1l-1.2 1.9c-.4.3-.8.5-1.2.3-.3-.2-2.7-1.8-4.5-1.8-1.8 0-2.9 1.2-2.9 2.3 0 1.5 1.2 2.6 3.8 3.6 3.1 1.3 6.8 3.2 6.8 7.3 0 3.4-2.9 6.4-7.5 6.4-4.1 0-6.5-1.9-7.1-2.5-.3-.3-.4-.4-.1-.9M22.5 2.6c-.1-.5.1-.8.6-.8h3c.1 0 .3.1.4.1.1.1.2.2.2.3l3.4 13h.1l5.2-13.4c0-.1.1-.2.2-.3.1-.1.2-.1.3-.1h.6c.1 0 .2 0 .3.1.1.1.2.2.2.3l5.2 13.4h.1l3.3-13c0-.1.1-.2.2-.3.1-.1.2-.1.4-.1h3c.5 0 .7.3.6.8l-6.1 21.8c0 .1-.1.2-.2.3-.1.1-.2.1-.4.1h-.5c-.1 0-.2 0-.3-.1-.1-.1-.2-.2-.2-.3L36.2 9.8H36l-5.7 14.7c0 .1-.1.2-.2.3-.1.1-.2.1-.3.1h-.5c-.1 0-.3-.1-.4-.1-.1-.1-.2-.2-.2-.3L22.5 2.6zM59 2.4v-.2c0-.1.1-.1.1-.2.1-.1.1-.1.2-.1h13.6c.1 0 .1.1.2.1.1.1.1.1.1.2v3.1c0 .1-.1.1-.1.2-.1.1-.1.1-.2.1h-9.8V11h8c.2 0 .3.1.4.2.1.1.2.3.2.4v2.7c0 .2-.1.3-.2.4-.1.1-.3.2-.4.2h-8v5.7h9.8c.1 0 .1.1.2.1.1.1.1.1.1.2V24c0 .1-.1.1-.1.2-.1.1-.1.1-.2.1H59.6c-.2 0-.3-.1-.4-.2-.1-.1-.2-.3-.2-.4V2.4zm24.5 0v-.2c0-.1.1-.1.1-.2.1-.1.1-.1.2-.1h13.6c.1 0 .1.1.2.1s.1.1.1.2v3.1c0 .1-.1.1-.1.2-.1.1-.1.1-.2.1h-9.8V11h8c.2 0 .3.1.4.2.1.1.2.3.2.4v2.7c0 .2-.1.3-.2.4-.1.1-.3.2-.4.2h-8v5.7h9.8c.1 0 .1.1.2.1.1.1.1.1.1.2V24c0 .1-.1.1-.1.2-.1.1-.1.1-.2.1H84.1c-.2 0-.3-.1-.4-.2-.1-.1-.2-.3-.2-.4V2.4zm27.6 3.3h-5.2c-.1 0-.1-.1-.2-.1-.1-.1-.1-.1-.1-.2V2.2c0-.1.1-.1.1-.2.1-.1.1-.1.2-.1h14.4c.2 0 .3.1.4.2.1.1.2.3.2.4v2.7c0 .2-.1.3-.2.4-.1.1-.3.2-.4.2h-5V24c0 .2-.1.3-.2.4-.1.1-.3.2-.4.2h-3c-.2 0-.3-.1-.4-.2-.1-.1-.2-.3-.2-.4V5.7zm14.5 18l10.1-21.9c0-.1.1-.2.2-.3.1-.1.2-.1.3-.1h.3c.1 0 .2 0 .3.1.1.1.2.2.2.3l10 21.9c0 .1.1.2.1.3 0 .1 0 .2-.1.3-.1.1-.1.2-.2.2s-.2.1-.3.1h-2.8c-.5 0-.7-.2-.9-.7l-1.6-3.5h-9.7l-1.6 3.5c-.1.2-.2.4-.4.5-.2.1-.4.2-.6.2h-2.8c-.1 0-.2 0-.3-.1-.1 0-.2-.1-.2-.2-.1-.1-.1-.2-.1-.3 0-.1 0-.2.1-.3zm14-6.9l-3.2-7.2h-.1l-3.2 7.2h6.5zm15.9-14.4v-.2c0-.1.1-.1.1-.2.1-.1.1-.1.2-.1h7.8c4 0 7.3 3.3 7.3 7.2 0 4-3.3 7.3-7.2 7.3h-4.1V24c0 .2-.1.3-.2.4-.1.1-.3.2-.4.2h-3.2c-.1 0-.1-.1-.2-.1-.1-.1-.1-.1-.1-.2V2.4zm7.9 9.9c.4 0 .9-.1 1.3-.3.4-.2.8-.4 1.1-.7.3-.3.6-.7.7-1.1.2-.4.2-.8.2-1.3 0-1.8-1.5-3.2-3.3-3.2h-3.8v6.5h3.8zm48.1-9.9v-.2c0-.1.1-.1.1-.2.1-.1.1-.1.2-.1h3.2c.2 0 .3.1.4.2.1.1.2.3.2.4v18.2h8.5c.1 0 .1.1.2.1.1.1.1.1.1.2v3.1c0 .1-.1.1-.1.2-.1.1-.1.1-.2.1H212c-.2 0-.3-.1-.4-.2-.1-.1-.2-.3-.2-.4l.1-21.4zm25.5-.6h-3c-.3 0-.6.3-.6.6v21.5c0 .3.3.6.6.6h3c.3 0 .6-.3.6-.6V2.4c0-.3-.3-.6-.6-.6zm15 3.9h-5c-.2 0-.3-.1-.4-.2-.1-.1-.2-.3-.2-.4V2.4c0-.2.1-.3.2-.4.1-.1.3-.2.4-.2h14.2c.2 0 .3.1.4.2.1.1.2.3.2.4v2.7c0 .2-.1.3-.2.4-.1.1-.3.2-.4.2h-5v18.2c0 .2-.1.3-.2.4-.1.1-.3.2-.4.2h-3c-.2 0-.3-.1-.4-.2-.1-.1-.2-.3-.2-.4V5.7zm14.4 18l10.1-21.9c0-.1.1-.2.2-.3.1-.1.2-.1.3-.1h.3c.1 0 .2 0 .3.1.1.1.2.2.2.3l10 21.9c0 .1.1.2.1.3 0 .1 0 .2-.1.3-.1.1-.1.2-.2.2s-.2.1-.3.1h-2.8c-.5 0-.7-.2-.9-.7l-1.6-3.5h-9.7l-1.6 3.5c-.1.2-.2.4-.4.5-.2.1-.4.2-.6.2H267c-.1 0-.2 0-.3-.1-.1 0-.2-.1-.2-.2-.1-.1-.1-.2-.1-.3v-.3zm14-6.9l-3.2-7.2h-.1l-3.2 7.2h6.5zm-77-5c-.1-.6-.3-1.1-.6-1.6s-.8-.8-1.3-1.1c.2-.5.3-1.1.3-1.7-.1-.6-.3-1.1-.6-1.6s-.8-.9-1.3-1.1c-.5-.3-1.1-.4-1.7-.3 0-.6-.2-1.1-.5-1.6s-.8-.9-1.3-1.2c-.5-.3-1.1-.4-1.7-.4-.6 0-1.1.2-1.6.5-.3-.5-.7-.9-1.2-1.2-.5-.3-1.1-.4-1.7-.4-.6 0-1.1.1-1.7.4-.5.3-.9.7-1.2 1.2-.5-.3-1.1-.5-1.6-.5-.6 0-1.1.1-1.7.4-.5.3-.9.7-1.3 1.2-.3.5-.5 1-.5 1.6-.6 0-1.2.1-1.7.3-.5.3-1 .6-1.3 1.1-.3.5-.5 1-.6 1.6-.1.6 0 1.2.3 1.7-.5.2-1 .6-1.3 1.1-.3.5-.6 1-.6 1.6-.1.6 0 1.2.2 1.7s.6 1 1 1.4c-.4.5-.6 1-.7 1.6-.1.6 0 1.2.2 1.7s.5 1 1 1.4c.4.4 1 .6 1.5.7-.1.6-.1 1.2.1 1.7s.5 1 1 1.4c.4.4 1 .7 1.5.8.6.1 1.2.1 1.7-.1.2.6.5 1.1.9 1.4.4.4.9.7 1.5.8.6.1 1.2.1 1.7 0 .6-.2 1.1-.4 1.5-.9.4.4.9.7 1.5.9s1.1.2 1.7 0c.6-.1 1.1-.4 1.5-.8.4-.4.7-.9.9-1.4.6.2 1.1.2 1.7.1.6-.1 1.1-.4 1.5-.8.4-.4.8-.9 1-1.4.2-.5.2-1.1.1-1.7.6-.1 1.1-.4 1.5-.7.4-.4.8-.9 1-1.4.2-.5.3-1.1.2-1.7-.1-.6-.3-1.1-.7-1.6.5-.4.8-.8 1-1.4.4-.6.4-1.2.4-1.7zm-4.8 5.8c-.9 1.7-2.2 3.1-3.9 4-1.7.9-3.5 1.3-5.4 1.2-1.9-.2-3.7-.9-5.1-2.1-1.5-1.2-2.6-2.8-3.1-4.6-.6-1.8-.6-3.7-.1-5.6.5-1.8 1.6-3.4 3-4.7 1.4-1.2 3.2-2 5.1-2.2 1.9-.2 3.8.1 5.5 1 2.2 1.2 3.9 3.2 4.7 5.6.7 2.5.5 5.2-.7 7.4z" fill="#ff71be"/><path d="M187.7 9.2c-.1 0-.1 0-.1.1s-.1.1-.1.1c0 .2 0 .4-.1.6-.1.2-.2.4-.3.5-.1.1-.3.3-.5.3-.2.1-.4.1-.6.1-.2 0-.4 0-.6-.1-.2-.1-.4-.2-.5-.4-.1-.2-.3-.3-.3-.5-.1-.2-.1-.4-.1-.6v-.2h-.2c-.1 0-.1 0-.1.1s-.2.1-.2.1c0 .2 0 .4.1.6l-.5.2c-.1 0-.1.1-.1.1v.2s0 .1.1.1h.2l.5-.2c.1.1.1.2.2.3l-.4.3-.1.1v.2l.1.1h.1l.5-.4c.1.1.1.1.2.1l-.2.3v.1c0 .1 0 .1.1.1h.1s.1 0 .1-.1l.3-.4c.2.1.4.1.6.1.5 0 1-.2 1.4-.5.4-.4.6-.9.6-1.4 0-.1 0-.1-.1-.1 0 .1 0 .1-.1.1z" fill="#ff71be"/><path d="M184.9 11.7h-.1l-.1-.1v-.2c0-.1 0-.1.1-.1l.2-.2-.1-.1-.4.3c-.1 0-.1.1-.2.1h-.1s-.1 0-.1-.1c0 0 0-.1-.1-.1V11s0-.1.1-.1l.4-.3-.1-.1-.5.1h-.1c-.1 0-.1 0-.2-.1l-.1-.1v-.2s0-.1.1-.1c0 0 .1 0 .1-.1l.4-.1c-.1-.2-.1-.4-.1-.6v-.1s0-.1.1-.1l.1-.1h.2c.1 0 .1.1.1.1v.2c0 .2 0 .4.1.6.1.2.2.3.3.5.1.1.3.3.5.3.2.1.4.1.6.1.2 0 .4 0 .6-.1.2-.1.3-.2.5-.3.1-.1.3-.3.3-.5.1-.2.1-.4.1-.6v-.1s0-.1.1-.1c0 0 .1 0 .1-.1h.2s.1 0 .1.1c0 0 0 .1.1.1v.1c0 .5-.2 1.1-.6 1.4-.4.4-.9.6-1.5.6-.2 0-.4 0-.6-.1l-.2.3-.1.1c-.1.1-.2.1-.2.1zm-.2-.9c.1.1.2.1.2.2h.1l-.3.4v.1h.2l.3-.4h.1c.2.1.4.1.6.1.5 0 1-.2 1.3-.5.4-.3.6-.8.6-1.3h-.1v.1c0 .4-.2.8-.5 1.2-.3.3-.7.5-1.2.5-.4 0-.8-.2-1.1-.5-.3-.3-.5-.7-.5-1.2v-.1h-.3v.1c0 .2 0 .4.1.6v.1l-.6.2s-.1 0-.1.1v.2h.1l.6-.2v.1c0 .1.1.2.2.2l.1.1-.5.4v.1h.2l.5-.6zm12-.4l-.5-.2c.1-.2.1-.4.1-.6 0-.1 0-.1-.1-.1l-.1-.1h-.2l-.1.1c0 .2 0 .4-.1.6-.1.2-.2.4-.3.5-.1.1-.3.3-.5.3-.2.1-.4.1-.6.1-.2 0-.4 0-.6-.1-.2-.1-.4-.2-.5-.4-.1-.2-.3-.3-.3-.5-.1-.2-.1-.4-.1-.6 0-.1 0-.1-.1-.1l-.1-.1s-.1 0-.1.1l-.1.1c0 .5.2 1 .5 1.4.4.4.9.6 1.4.6.2 0 .4 0 .6-.1l.2.4s0 .1.1.1h.2l.1-.1c.1-.1 0 0 0-.1v-.2l-.2-.3c.1 0 .1-.1.2-.1l.5.4h.2s.1 0 .1-.1v-.4l-.4-.4c.1-.1.1-.2.2-.3l.5.2h.2l.1-.1v-.2c-.1.3-.1.3-.2.3z" fill="#ff71be"/><path d="M195.4 11.9h-.1l-.1-.1-.2-.3c-.2.1-.4.1-.6.1-.5 0-1.1-.2-1.4-.6-.4-.4-.6-.9-.6-1.5 0-.1 0-.1.1-.2s.1-.1.2-.1h.1s.1 0 .1.1c0 0 0 .1.1.1v.1c0 .2 0 .4.1.6.1.2.2.4.3.5.1.1.3.3.5.3.2.1.4.1.6.1.2 0 .4 0 .6-.1.2-.1.3-.2.5-.3.1-.1.3-.3.3-.5.1-.2.1-.4.1-.6 0-.1 0-.1.1-.2s.1-.1.2-.1h.1s.1 0 .1.1c0 0 0 .1.1.1v.1c0 .2 0 .4-.1.6l.4.1c.1 0 .1.1.2.1 0 .1.1.1 0 .2 0 .1-.1.1-.1.2-.1 0-.1.1-.2 0h-.1l-.5-.2-.1.1.4.3.1.1v.2s0 .1-.1.1l-.1.1h-.1c-.1 0-.1 0-.2-.1l-.4-.3-.1.1.2.2c0 .1.1.1 0 .2 0 .1-.1.1-.1.2-.2.2-.3.2-.3.2zm-.4-.6l.3.4h.2l.1-.1-.2-.4h.1c.1 0 .1-.1.2-.1h.1l.5.4h.2v-.1l-.5-.4.1-.1c.1-.1.1-.2.2-.2v-.1l.6.2h.1v-.2s0-.1-.1-.1l-.6-.2v-.1c.1-.2.1-.4.1-.6v-.1h-.1v.1c0 .4-.2.8-.5 1.1-.3.3-.7.5-1.2.5-.4 0-.8-.2-1.1-.5-.3-.3-.5-.7-.5-1.2v-.1h-.2v.1c0 .5.2 1 .5 1.3.3.4.8.6 1.3.6-.1 0 .1 0 .4-.1zm-4.9 8.6c-1.4 0-2.8-.6-3.9-1.6-1-1-1.6-2.4-1.6-3.9 0 0 0-.1.1-.1l.1-.1s.1 0 .1.1l.1.1c0 1.4.5 2.6 1.5 3.6s2.2 1.5 3.6 1.5 2.6-.5 3.6-1.5 1.5-2.3 1.5-3.6c0 0 0-.1.1-.1l.1-.1c.1 0 .1 0 .1.1l.1.1c0 1.5-.6 2.8-1.6 3.9-1 1-2.4 1.6-3.9 1.6z" fill="#ff71be"/><path d="M190.1 20c-1.5 0-2.9-.6-3.9-1.6s-1.6-2.5-1.6-3.9c0-.1 0-.1.1-.2.1 0 .1-.1.2-.1s.1 0 .2.1c0 0 .1.1.1.2 0 1.3.6 2.6 1.5 3.5.9.9 2.2 1.4 3.5 1.4 1.3 0 2.6-.5 3.5-1.4.9-.9 1.5-2.2 1.5-3.5 0-.1 0-.1.1-.2.1 0 .1-.1.2-.1s.1 0 .2.1c0 0 .1.1.1.2 0 1.5-.6 2.9-1.6 3.9-1.2 1-2.6 1.6-4.1 1.6zm-5.2-5.7c-.1 0-.1 0 0 0l-.1.1c0 1.4.6 2.8 1.6 3.8s2.4 1.6 3.8 1.6 2.8-.6 3.8-1.6 1.6-2.4 1.6-3.8v-.1h-.2v.1c0 .7-.1 1.4-.4 2-.3.6-.6 1.2-1.1 1.7s-1.1.9-1.7 1.1c-.6.3-1.3.4-2 .4s-1.4-.1-2-.4c-.6-.3-1.2-.7-1.7-1.1-.5-.5-.9-1.1-1.1-1.7-.3-.6-.4-1.3-.4-2l-.1-.1z" fill="#ff71be"/></svg>