<svg width="106" height="103" fill="none" xmlns="http://www.w3.org/2000/svg"><path d="M96.404 38.781a11.19 11.19 0 00-6.456-8.834 11.186 11.186 0 00-1.019-10.894 11.192 11.192 0 00-9.822-4.824 11.192 11.192 0 00-5.966-9.173 11.196 11.196 0 00-10.952.298A11.2 11.2 0 0052.63 0c-4.038 0-7.576 2.14-9.547 5.346a11.189 11.189 0 00-10.94-.296 11.185 11.185 0 00-5.973 9.168 11.185 11.185 0 00-9.824 4.82 11.182 11.182 0 00-1.027 10.89 11.196 11.196 0 00-6.459 8.83 11.185 11.185 0 004.157 10.119 11.18 11.18 0 00-1.616 10.82 11.186 11.186 0 008.384 7.032 11.184 11.184 0 003.6 10.331 11.192 11.192 0 0010.693 2.33 11.185 11.185 0 007.988 7.475 11.2 11.2 0 0010.554-2.903 11.198 11.198 0 0010.55 2.909 11.184 11.184 0 007.994-7.472c3.6 1.094 7.669.352 10.694-2.325a11.18 11.18 0 003.605-10.33 11.186 11.186 0 008.39-7.025 11.186 11.186 0 00-1.611-10.82 11.18 11.18 0 004.162-10.118zM80.7 58.101C72.69 73.598 53.628 79.667 38.127 71.66c-15.5-8.007-21.577-27.066-13.565-42.56 8.013-15.498 27.074-21.567 42.575-13.56C82.64 23.55 88.713 42.602 80.7 58.1z" fill="#FF71BE"/><path d="M44.706 30.334a.671.671 0 00-.686.661 5.152 5.152 0 01-5.249 5.045 5.153 5.153 0 01-5.047-5.25.675.675 0 00-1.35-.027c-.013.721.12 1.407.323 2.06l-1.597.502a.671.671 0 00-.438.844.672.672 0 00.844.441l1.727-.543c.169.298.363.58.578.847l-1.423 1.123a.677.677 0 00-.252.455.652.652 0 00.142.491.68.68 0 00.946.113l1.538-1.215c.2.164.398.32.616.457l-.715 1.003a.67.67 0 00.535 1.061.677.677 0 00.565-.282l.836-1.174c.672.252 1.385.422 2.143.435a6.508 6.508 0 006.625-6.364.676.676 0 00-.661-.683z" fill="#FF71BE"/><path d="M35.21 38.561h-.015a.814.814 0 01-.468-.156.83.83 0 01-.194-1.15l.621-.874a6.47 6.47 0 01-.398-.3l-1.44 1.136a.824.824 0 01-1.161-.137.829.829 0 01.133-1.164l1.302-1.03a6.985 6.985 0 01-.433-.636l-1.608.505a.876.876 0 01-.267.04.828.828 0 01-.774-.583.803.803 0 01.057-.629.84.84 0 01.484-.406l1.452-.456a6.397 6.397 0 01-.285-1.962.828.828 0 01.828-.812h.016a.82.82 0 01.58.255.815.815 0 01.232.589 5 5 0 004.896 5.09 4.93 4.93 0 003.557-1.395 4.95 4.95 0 001.533-3.5.82.82 0 01.844-.81.827.827 0 01.812.843 6.651 6.651 0 01-6.78 6.518 6.417 6.417 0 01-2.082-.406l-.766 1.078a.816.816 0 01-.675.352zm-.448-2.876l.097.08c.23.192.416.329.602.447l.137.089-.81 1.134a.523.523 0 00-.088.387.511.511 0 00.5.43.54.54 0 00.436-.218l.903-1.271.113.043c.729.274 1.412.414 2.09.427 3.492.065 6.396-2.72 6.466-6.214a.521.521 0 00-.511-.53.526.526 0 00-.53.509 5.254 5.254 0 01-1.63 3.717 5.268 5.268 0 01-3.777 1.48 5.31 5.31 0 01-5.2-5.407.519.519 0 00-.508-.527h-.011a.519.519 0 00-.519.508c-.013.635.091 1.293.317 2.01l.046.148-1.745.549a.526.526 0 00-.304.252.52.52 0 00.449.76.659.659 0 00.172-.026l1.84-.578.061.108c.159.28.344.55.565.828l.097.12-1.546 1.22a.523.523 0 00-.086.73.52.52 0 00.73.085l1.644-1.29zm39.43-1.51l-1.575-.565c.23-.645.39-1.325.406-2.045a.675.675 0 00-1.35-.027 5.152 5.152 0 01-5.249 5.045 5.153 5.153 0 01-5.046-5.25.673.673 0 10-1.347-.023 6.504 6.504 0 006.367 6.622c.758.016 1.476-.126 2.156-.352l.79 1.207a.67.67 0 00.552.303.647.647 0 00.379-.107.671.671 0 00.199-.933l-.672-1.03a6.72 6.72 0 00.631-.432l1.493 1.277a.676.676 0 00.876-1.027l-1.38-1.177a6.42 6.42 0 00.614-.825l1.72.618a.674.674 0 00.847-.411.692.692 0 00-.41-.868z" fill="#FF71BE"/><path d="M69.909 39.246h-.016a.826.826 0 01-.678-.376l-.726-1.107a6.45 6.45 0 01-2.094.322 6.604 6.604 0 01-4.663-2.043 6.609 6.609 0 01-1.858-4.735.835.835 0 01.847-.812.827.827 0 01.812.844 4.948 4.948 0 001.396 3.559 4.95 4.95 0 003.5 1.531 4.956 4.956 0 003.558-1.394 4.95 4.95 0 001.532-3.5.832.832 0 01.847-.811c.457.008.82.386.812.843a6.472 6.472 0 01-.363 1.949l1.434.513c.427.156.65.632.497 1.06a.831.831 0 01-1.038.507l-1.61-.577c-.138.21-.288.413-.46.62l1.26 1.078a.84.84 0 01.288.573.817.817 0 01-.201.596.797.797 0 01-.643.288.841.841 0 01-.516-.194l-1.4-1.198a6.39 6.39 0 01-.41.282l.587.895a.818.818 0 01.115.626.81.81 0 01-.36.519.745.745 0 01-.45.142zm-1.29-1.852l.854 1.307a.52.52 0 00.869-.567l-.761-1.164.14-.084c.185-.11.376-.239.618-.422l.1-.075 1.586 1.357a.517.517 0 00.726-.06.504.504 0 00.126-.372.525.525 0 00-.18-.36l-1.495-1.28.102-.118c.232-.269.428-.532.597-.806l.068-.108 1.836.659a.512.512 0 00.648-.317.524.524 0 00-.315-.664l-1.72-.618.05-.146c.253-.706.385-1.36.396-1.997a.52.52 0 00-.508-.53.521.521 0 00-.53.509 5.258 5.258 0 01-1.63 3.717 5.272 5.272 0 01-3.777 1.48 5.262 5.262 0 01-3.719-1.628 5.268 5.268 0 01-1.481-3.779.521.521 0 00-.511-.53.526.526 0 00-.53.509 6.296 6.296 0 001.772 4.515 6.303 6.303 0 004.445 1.949c.68.01 1.368-.1 2.105-.344l.118-.033zM52.634 65.605c-9.957 0-18.058-8.098-18.058-18.05a.618.618 0 011.237 0c0 9.272 7.547 16.814 16.821 16.814 9.276 0 16.824-7.545 16.824-16.815a.618.618 0 011.236 0c-.002 9.956-8.104 18.051-18.06 18.051z" fill="#FF71BE"/><path d="M52.634 65.76c-10.043 0-18.214-8.167-18.214-18.206a.773.773 0 011.543 0c0 9.187 7.478 16.661 16.668 16.661s16.668-7.474 16.668-16.66a.772.772 0 011.543-.001c.003 10.039-8.166 18.207-18.208 18.207zM35.192 47.093a.462.462 0 00-.463.462c0 9.867 8.032 17.895 17.902 17.895 9.87 0 17.902-8.028 17.902-17.895a.462.462 0 00-.925 0c0 9.359-7.617 16.97-16.977 16.97-9.362 0-16.977-7.611-16.977-16.97a.462.462 0 00-.462-.462zM4.767 65.705c.07-.081.161-.175.247-.229.42-.252.944-.091 1.194.325.21.35.153.764-.102 1.049l-3.383 3.865 4.97-1.14c.421-.094.822.019 1.05.398l.07.115c.226.38.15.78-.142 1.113l-3.34 3.852 5.004-1.172c.352-.078.748.027.968.395a.842.842 0 01-.28 1.169 1.224 1.224 0 01-.328.118l-6.517 1.33c-.463.095-.866-.045-1.081-.405L3 76.332c-.215-.357-.153-.763.156-1.134l3.116-3.69-4.724 1.016c-.473.099-.86-.038-1.075-.396l-.094-.156c-.215-.357-.151-.779.15-1.144l4.238-5.123zM11.7 76.002a.87.87 0 111.166 1.293l-1.747 1.572 2.148 2.384 1.748-1.573a.87.87 0 111.166 1.293l-4.734 4.26a.87.87 0 11-1.167-1.292l1.782-1.602-2.148-2.384-1.783 1.602a.87.87 0 11-1.167-1.293l4.735-4.26zm1.618 10.872l3.958-4.817a.866.866 0 011.229-.126l3.385 2.784a.79.79 0 01.102 1.105.772.772 0 01-1.094.105l-2.721-2.24-1.03 1.253 2.329 1.917a.79.79 0 01.102 1.105.773.773 0 01-1.095.104l-2.328-1.916-1.065 1.298 2.764 2.274c.33.271.377.769.102 1.105a.772.772 0 01-1.094.104l-3.428-2.819a.875.875 0 01-.116-1.236zm9.61-.294a.87.87 0 011.2-.303l2.35 1.42c.86.518 1.379 1.166 1.554 1.883.148.608.024 1.269-.366 1.914l-.01.019c-.651 1.075-1.584 1.419-2.611 1.263l.266 1.895c.032.274.035.489-.108.723-.253.42-.766.484-1.124.268-.338-.204-.46-.505-.5-.833l-.328-2.73-1.191-.718-.903 1.494a.87.87 0 11-1.49-.897l3.261-5.397zm1.447 4.379c.726.438 1.377.298 1.726-.28l.011-.018c.39-.645.145-1.248-.578-1.683l-1.482-.892-1.188 1.965 1.511.908zm2.905 5.3l2.435-5.733a.868.868 0 011.146-.468l4.036 1.712a.784.784 0 01.408 1.03.776.776 0 01-1.021.408l-3.246-1.376-.634 1.492L33.18 94.5a.784.784 0 01.409 1.03.776.776 0 01-1.022.408l-2.777-1.177-.656 1.543 3.299 1.397a.784.784 0 01.409 1.03.773.773 0 01-1.022.408l-4.09-1.734a.867.867 0 01-.452-1.147zm12.317-2.121a.867.867 0 011.019-.698.869.869 0 01.69 1.026l-.44 2.31 3.151.601.441-2.308a.867.867 0 011.02-.7.869.869 0 01.69 1.027l-1.194 6.257a.87.87 0 11-1.71-.325l.45-2.354-3.152-.602-.449 2.354a.87.87 0 11-1.71-.325l1.194-6.263zm7.465 7.456l2.941-6.198c.205-.427.562-.68 1.035-.664l.103.003c.473.014.804.288.984.726l2.568 6.364a.857.857 0 01.08.355.83.83 0 01-.85.82c-.406-.014-.669-.261-.817-.629l-.492-1.271-3.476-.105-.592 1.293c-.156.338-.457.535-.817.524a.805.805 0 01-.777-.844.943.943 0 01.11-.374zm4.953-2.064l-1.017-2.666-1.172 2.602 2.188.064zm3.982-3.811a.866.866 0 01.758-.976l2.345-.28c1.874-.222 3.14.764 3.334 2.385l.003.021c.22 1.836-1.081 2.957-2.84 3.166l-1.312.156.188 1.575a.866.866 0 01-.758.976.868.868 0 01-.968-.769l-.75-6.254zm3.468 2.758c.864-.103 1.307-.686 1.224-1.366l-.003-.021c-.094-.782-.683-1.137-1.546-1.035l-1.334.158.29 2.425 1.37-.162zm3.721-3.728a.868.868 0 01.618-1.07l2.283-.602c1.826-.481 3.216.32 3.63 1.895l.005.021c.471 1.788-.664 3.075-2.38 3.53l-1.276.338.403 1.532a.87.87 0 01-.618 1.072.866.866 0 01-1.065-.626l-1.6-6.09zm3.818 2.247c.842-.224 1.2-.86 1.027-1.522l-.005-.021c-.202-.76-.834-1.03-1.672-.81l-1.302.345.621 2.36 1.331-.352zm6.586-1.272l-3.707-2.239a1.05 1.05 0 01-.441-.494.853.853 0 01.476-1.116c.365-.153.677-.048 1 .162l2.853 1.833.712-3.355c.075-.379.234-.666.568-.809.489-.207.927.02 1.113.46.094.22.072.465.03.656l-1.009 4.195.89 2.126a.87.87 0 11-1.605.675l-.88-2.094zm6.228-7.617a.867.867 0 01.226-1.215.865.865 0 011.213.237l3.137 4.612 2.665-1.809a.789.789 0 011.102.215.789.789 0 01-.207 1.105L84.57 93.55a.865.865 0 01-1.213-.237l-3.538-5.206zm5.574-3.988a.866.866 0 01.105-1.231.868.868 0 011.232.115l4.081 4.884a.866.866 0 01-.105 1.23.868.868 0 01-1.231-.115l-4.082-4.883zm8.943.814l-6.252-2.43a1.124 1.124 0 01-.376-.218.858.858 0 01-.024-1.228c.312-.325.704-.357 1.054-.21l5.103 2.145-2.396-5.058a.895.895 0 01.175-.99.844.844 0 011.205-.037c.1.094.174.229.217.334l2.732 6.19c.188.43.154.849-.174 1.19l-.079.08c-.33.345-.747.401-1.185.232zm4.229-5.161l-5.079-3.604a.868.868 0 01-.212-1.218l2.54-3.574c.25-.35.74-.43 1.095-.18.352.25.43.733.18 1.083l-2.043 2.873 1.32.938 1.75-2.46a.789.789 0 011.095-.18c.352.25.43.734.18 1.084l-1.75 2.46 1.368.97 2.076-2.92a.787.787 0 011.094-.18c.352.25.43.734.18 1.084l-2.576 3.62a.86.86 0 01-1.218.204zm4.47-6.547a.821.821 0 01-.737-.024.804.804 0 01-.328-1.1.84.84 0 01.377-.362c.675-.317 1.226-.763 1.589-1.44.336-.627.288-1.14-.124-1.36l-.019-.011c-.392-.21-.72-.081-1.648.922-1.116 1.206-1.992 1.9-3.39 1.153l-.02-.011c-1.276-.686-1.575-2.153-.808-3.575.454-.844 1.07-1.462 1.81-1.873a.793.793 0 01.792-.008.803.803 0 01.328 1.099.81.81 0 01-.32.328c-.572.344-1 .73-1.258 1.207-.315.585-.21 1.04.132 1.222l.019.011c.462.248.771.032 1.731-1.005 1.129-1.212 2.07-1.73 3.297-1.072l.018.01c1.396.75 1.614 2.223.807 3.726a5.03 5.03 0 01-2.248 2.163z" fill="#FF71BE"/></svg>