<svg width="49" height="30" fill="none" xmlns="http://www.w3.org/2000/svg"><path d="M45.131 1.25c1.419 0 2.58 1.125 2.58 2.5v22.5c0 1.375-1.161 2.5-2.58 2.5H3.868c-1.418 0-2.579-1.125-2.579-2.5V3.75c0-1.375 1.16-2.5 2.579-2.5h41.263z" fill="#fff"/><path d="M19.343 23.75c4.985 0 9.026-3.918 9.026-8.75s-4.041-8.75-9.026-8.75c-4.985 0-9.027 3.918-9.027 8.75s4.042 8.75 9.027 8.75z" fill="#ED40A9"/><path d="M29.66 23.75c4.984 0 9.025-3.918 9.025-8.75s-4.04-8.75-9.026-8.75c-4.985 0-9.026 3.918-9.026 8.75s4.041 8.75 9.026 8.75z" fill="#FF71BE"/><path d="M28.37 15c0-3-1.548-5.625-3.869-7.125-2.32 1.625-3.868 4.25-3.868 7.125s1.547 5.625 3.868 7.125A8.465 8.465 0 0028.37 15z" fill="#FFB2E0"/></svg>