<svg width="51" height="30" fill="none" xmlns="http://www.w3.org/2000/svg"><path d="M46.973 1.25c1.477 0 2.685 1.125 2.685 2.5v22.5c0 1.375-1.208 2.5-2.685 2.5H4.026c-1.476 0-2.684-1.125-2.684-2.5V3.75c0-1.375 1.208-2.5 2.684-2.5h42.947z" fill="#fff"/><path d="M32.076 10.375c.268-1.25 0-2.125-.805-2.875-.806-.875-2.282-1.25-4.16-1.25h-5.503c-.403 0-.672.25-.806.625L18.79 19.5c0 .25.134.5.403.5h3.623l.537-4.25L25.768 13l6.308-2.625z" fill="#FF71BE"/><path d="M32.077 10.375l-.269.25c-.67 3.5-2.952 4.75-6.173 4.75h-1.477c-.402 0-.67.25-.805.625l-.805 4.875-.269 1.25c0 .25.134.5.403.5H25.5c.403 0 .671-.25.671-.5V22l.537-3v-.125c0-.25.403-.5.671-.5h.403c2.818 0 4.966-1 5.503-4 .268-1.25.134-2.25-.537-3-.134-.625-.403-.875-.671-1z" fill="#FFB2E0"/><path d="M31.272 10.125C31.138 10 31.004 10 30.869 10c-.134 0-.268 0-.402-.125-.403-.125-.94-.125-1.477-.125h-4.026c-.134 0-.268 0-.268.125-.269.125-.403.25-.403.5l-.94 5.5V16c0-.375.403-.625.806-.625h1.745c3.355 0 5.502-1.25 6.173-4.75v-.25a1.066 1.066 0 00-.67-.25h-.135z" fill="#ED40A9"/></svg>