<svg version="1.1" id="Layer_1" xmlns="http://www.w3.org/2000/svg" x="0" y="0" viewBox="0 0 128.12 36" xml:space="preserve"><style>.st1{fill:#f2e850}.st4{fill:#62cbc9}.st6{fill:#ff71be}</style><path d="M38.95 8.38l-.64.36-.65-.32c-.07-.03-.15-.03-.2.02-.06.04-.09.12-.07.19l.14.72-.51.52c-.05.06-.07.13-.04.2.02.07.09.12.16.13l.72.09.34.65c.03.07.1.11.18.1.07 0 .14-.04.17-.11l.31-.66.72-.12c.05-.01.09-.03.12-.07.02-.02.03-.04.04-.07.02-.07 0-.15-.05-.2l-.53-.5.11-.72a.2.2 0 00-.08-.19c-.1-.05-.17-.06-.24-.02z" fill="#ffad5f"/><path class="st1" d="M91.18 27.65l-.73-.08-.35-.64a.21.21 0 00-.18-.1c-.07 0-.14.05-.17.11l-.3.67-.72.13c-.08.02-.13.07-.15.14-.02.07 0 .15.06.2l.54.49-.09.72a.2.2 0 00.08.19c.06.04.14.04.2.01l.63-.36.66.31c.04.02.09.02.13.01.02-.01.05-.02.07-.03.06-.05.09-.12.07-.19l-.13-.73.5-.53c.05-.05.07-.13.04-.2-.02-.07-.09-.11-.16-.12z"/><path d="M114.99 14.7c-.01 0-.02 0-.02-.01v.02c0 .29-.23.52-.52.52-.29 0-.52-.23-.52-.52v-.02c-.01 0-.01.01-.02.01a.516.516 0 01-.32-.98c.01 0 .02 0 .02-.01-.01 0-.01-.01-.02-.02a.513.513 0 01.11-.72c.23-.17.55-.12.72.11.01.01.01.01.01.02 0-.01.01-.01.01-.02.17-.23.49-.28.72-.12.23.17.28.49.12.72-.01.01-.01.01-.01.02.01 0 .01 0 .02.01.27.09.42.38.33.65-.06.29-.35.43-.63.34zM37.11 29.3c-.01 0-.02-.01-.03-.01v.03c0 .36-.29.65-.64.65-.36 0-.65-.29-.65-.65v-.03c-.01 0-.02.01-.03.01a.634.634 0 01-.81-.41c-.11-.34.07-.7.41-.81.01 0 .02-.01.03-.01l-.02-.02a.641.641 0 01.14-.9c.29-.21.69-.15.9.14.01.01.01.02.02.03.01-.01.01-.02.02-.03.21-.29.61-.35.9-.15.29.21.35.61.14.91l-.02.02c.01 0 .02.01.03.01.34.11.53.48.42.81-.1.34-.47.52-.81.41z" fill="#ffb2e0"/><path class="st1" d="M124.98 17.61l-.76-.16-.3-.72a.225.225 0 00-.18-.13c-.08-.01-.15.04-.19.1l-.39.68-.78.06c-.08.01-.15.06-.18.13s-.01.16.04.22l.52.58-.18.76c-.02.08.01.16.07.21.06.05.14.06.22.03l.71-.32.67.4c.04.03.09.04.14.03.03 0 .05-.01.08-.03.07-.04.1-.12.1-.2l-.08-.78.59-.51c.06-.05.09-.13.07-.21a.27.27 0 00-.17-.14z"/><path d="M5.29 11.92l-.56.32-.58-.28a.168.168 0 00-.18.02c-.05.04-.08.11-.06.17l.13.64-.45.46c-.05.05-.06.12-.04.18.02.06.08.11.14.11l.64.08.3.57c.03.06.09.09.16.09s.12-.04.15-.1l.27-.59.64-.11c.04-.01.08-.03.1-.06.01-.02.03-.04.03-.06.02-.06 0-.13-.05-.18l-.48-.44.09-.64a.19.19 0 00-.07-.17c-.05-.04-.12-.04-.18-.01z" fill="#f3e85c"/><circle class="st4" cx="119.5" cy="14.83" r=".67"/><circle class="st4" cx="9.31" cy="11.5" r=".67"/><path d="M122.76 9.24l-.67.71-.96-.15c-.1-.02-.2.03-.25.11-.06.08-.06.19-.02.27l.46.86-.44.87c-.04.09-.04.19.02.27.06.08.16.12.25.1l.96-.18.69.69c.07.07.17.09.27.06.09-.03.16-.11.17-.21l.13-.96.87-.44c.06-.03.1-.08.12-.13.01-.03.02-.07.02-.1 0-.1-.06-.19-.15-.23l-.88-.42-.15-.96a.26.26 0 00-.18-.21c-.09-.05-.19-.02-.26.05zM7.79 15.03l-.02.97-.82.53c-.08.05-.13.15-.12.25.01.1.08.18.17.21l.92.33.25.94a.259.259 0 00.46.09l.59-.77.97.05c.1 0 .19-.05.24-.13.05-.09.04-.19-.01-.27l-.55-.8.35-.91c.02-.06.02-.12 0-.18-.01-.03-.03-.06-.05-.09-.07-.07-.17-.1-.26-.07l-.94.27-.76-.61c-.08-.06-.18-.08-.27-.03-.08.03-.14.12-.15.22z" fill="#f478c4"/><path class="st6" d="M12.66 11.39c0-1 .23-1.35.77-1.35s.68.48.68 1.35c0 2.77 3.54 5.12 8.79 5.12 2.93-5.31 5.28-8.98 8.56-8.98 1.35 0 2.48.87 2.48 2.41 0 3.31-4.02 7.11-10.04 7.79-1.13 2.25-2.38 4.31-2.38 4.31 2.35 1.45 3.7 3.44 3.7 5.73 0 .51-.39.97-.84.97-.58 0-.84-.39-.84-.8 0-.42.13-.87.13-1.22 0-1.29-1-2.61-2.8-3.64-3.06 4.86-6.5 7.98-11.1 7.98-3.31 0-5.57-1.83-5.57-4.86 0-3.15 3.15-6.21 8.59-6.21 2.93 0 5.47.52 7.47 1.42.29-.45 1.13-1.87 1.96-3.57-5.53-.01-9.56-3.04-9.56-6.45zm-7.11 14.8c0 2.25 1.45 3.57 4.22 3.57 3.77 0 7.18-3.22 9.85-7.34-1.8-.74-4.15-1.22-6.95-1.22-4.8.01-7.12 2.77-7.12 4.99zM31.42 8.85c-2.19 0-4.25 3.09-6.73 7.43 4.73-.87 7.79-3.8 7.79-6.08.01-.84-.38-1.35-1.06-1.35z"/><path class="st6" d="M32.67 18.44c0 .26 0 1 .52 1 1.32 0 2.57-.9 2.9-.9s.58.22.58.55c0 .32-.42.71-1.48 1.19-1.19.55-2.67.55-2.8.55-.68 1.93-2.16 4.47-4.41 4.47-.9 0-1.8-.68-1.8-2.06 0-2.99 2.51-5.86 4.76-5.86 1.19 0 1.73.58 1.73 1.06zm-5.15 4.79c0 .58.39.93.8.93 1.25 0 2.9-2.9 2.9-3.86 0-.1-.48-.26-.48-.68 0-.32.1-.58.1-.71 0-.06-.03-.1-.1-.1-1.38.02-3.22 2.33-3.22 4.42z"/><path class="st6" d="M36.66 19.15c0 1.19-.84 3.86-.84 4.25 0 .1.03.23.19.23.8 0 3.96-3.99 3.96-7.11 0-.71-.45-1.09-.45-1.48 0-.35.29-.74.64-.74.39 0 1.09.06 1.09 2 0 2.9-3.48 8.79-5.7 8.79-.61 0-1.22-.58-1.22-1.32 0-.71.87-2.9.87-4.22 0-.35-.03-.39-.03-.87 0-.51.26-.8.64-.8.3-.02.85.46.85 1.27zm12.49.87c.39-.48.68-.8 1-.8s.45.19.45.45c0 .29-.13.48-.48.93-1.54 1.83-4.18 4.7-7.76 4.7-1 0-1.93-1.03-1.93-2.06 0-.32-.1-.42-.1-.74 0-.29.26-.64.55-.77 1.32-3.06 3.48-4.28 5.12-4.28.61 0 1.32.51 1.32 1.13 0 1.64-2.8 3.51-4.79 3.96-.58.13-.61.32-.61.64s.19.96.97.96c2.81 0 5.1-2.58 6.26-4.12zm-6.83 1.51c1.13-.03 3.67-1.83 3.67-2.51 0-.26-.13-.32-.39-.32-.99 0-2.79 2.06-3.28 2.83zm19.08-3.35c.48 1.77 1.26 4.47 2.38 6.28 1.16 1.9 2.7 2.83 3.99 2.83.58 0 1.09-.16 1.22-.16.19 0 .26.03.26.16 0 .1-.03.19-.19.32-.32.35-1.16.84-1.74.84-1.58 0-3.35-1.03-4.7-3.28-1.38-2.29-2.22-5.12-2.64-7.02-.23-.1-.32-.26-.32-.58 0-.51.74-.61 1.26-.61 2.64 0 6.89-3.41 6.89-5.83 0-1.74-1-2.54-3.51-2.54-5.95 0-11.55 4.54-11.55 7.47 0 .29.26.55.26.87 0 .51-.45.84-.97.84-.48 0-.84-.55-.84-1.03 0-4.76 6.44-9.17 13.55-9.17 2.86 0 4.41 1.06 4.41 3.41 0 3.05-4.86 6.62-7.76 7.2zm1.97-6.95c0 .74-2.19 1.71-4.41 5.6-2.64 4.63-2.83 6.95-2.83 8.62 0 .29 0 .74-.42.74s-1.09-.35-1.09-.96c0-.58.42-4.02 3.02-8.69 2.57-4.67 4.31-6.11 4.86-6.11.45 0 .87.41.87.8z"/><path class="st6" d="M72.57 18.44c0 .26 0 1 .52 1 1.32 0 2.57-.9 2.9-.9s.58.22.58.55c0 .32-.42.71-1.48 1.19-1.19.55-2.67.55-2.8.55-.68 1.93-2.16 4.47-4.41 4.47-.9 0-1.8-.68-1.8-2.06 0-2.99 2.51-5.86 4.76-5.86 1.18 0 1.73.58 1.73 1.06zm-5.15 4.79c0 .58.39.93.8.93 1.25 0 2.9-2.9 2.9-3.86 0-.1-.48-.26-.48-.68 0-.32.1-.58.1-.71 0-.06-.03-.1-.1-.1-1.39.02-3.22 2.33-3.22 4.42z"/><path class="st6" d="M75.14 20.43c0-1.67 2.45-3.22 3.86-3.22.55 0 1.29.48 1.29 1.16s-.42 1.8-1.06 1.8c-.35 0-.68-.19-.68-.55 0-.55.48-.64.48-.77 0-.19-.22-.42-.48-.42-.45 0-1.96.87-1.96 1.8 0 .9 2.32.77 2.32 2.83 0 1.06-.93 2.22-2.8 2.22-1.13 0-2-.8-2-1.58 0-.45.32-.8.71-.8.29 0 .58.16.58.48 0 .55.29.87.9.87.68 0 1.13-.55 1.13-1.19-.01-1.24-2.29-1.18-2.29-2.63zm11.68-.41c.39-.48.64-.8 1-.8.29 0 .45.19.45.45 0 .29-.13.48-.48.93-1.54 1.83-4.44 4.57-6.05 4.57-.55 0-1.32-.58-1.32-1.64 0-1.42 1.64-4.57 1.9-5.05.35-.61.64-1.13 1.06-1.13.29 0 .74.23.74.58s-.32.68-.61 1.16c-.71 1.22-1.67 3.48-1.67 4.18 0 .29.16.64.58.64.92 0 3.24-2.35 4.4-3.89zm.64-7.53c0 .77-.87 1.22-1.25 1.22-.39 0-.55-.68-.55-1.13 0-.45.45-1 1.09-1 .33.01.71.26.71.91z"/><path class="st6" d="M94.12 20.02c.39-.48.68-.8 1-.8.32 0 .45.19.45.45 0 .29-.13.48-.48.93-1.54 1.83-4.18 4.7-7.76 4.7-1 0-1.93-1.03-1.93-2.06 0-.32-.1-.42-.1-.74 0-.29.26-.64.55-.77 1.32-3.06 3.48-4.28 5.12-4.28.61 0 1.32.51 1.32 1.13 0 1.64-2.8 3.51-4.79 3.96-.58.13-.61.32-.61.64s.19.96.96.96c2.83 0 5.11-2.58 6.27-4.12zm-6.82 1.51c1.13-.03 3.67-1.83 3.67-2.51 0-.26-.13-.32-.39-.32-.99 0-2.8 2.06-3.28 2.83zm-37.24 1.61c.64 0 .84.42.84.96 0 1-1.48 2.41-1.8 2.41-.26 0-.32-.1-.32-.32 0-.32.45-.9.45-1.51 0-.19-.03-.42-.03-.64-.01-.39.31-.9.86-.9zm61.05-3.12c.39-.48.64-.8 1-.8.29 0 .45.19.45.45 0 .29-.13.48-.51.93-1.51 1.83-3.83 4.67-5.28 4.67-1.29 0-1.96-2.12-2.25-2.12-.23 0-2.06 2.03-3.48 3.28-.48.42-.74.64-1.13.64-.39 0-.58-.23-.58-.61 0-.26.26-.55.74-.87 1.42-.93 3.99-3.83 3.99-4.34 0-.48-.42-2.12-.74-2.12-.26 0-.64.58-1.29 1.35-.26.32-.45.55-.64.55-.29 0-.52-.26-.52-.51 0-.32.23-.61.48-.93.64-.8 1.51-2.03 2.16-2.03 1.35 0 1.61 2.74 1.77 2.74s1.38-1.42 2.22-2.67c.48-.74.77-1.19 1.16-1.19.29 0 .58.22.58.51 0 .39-.45.84-.77 1.32-.77 1.06-2.9 3.44-2.9 3.67 0 .22.71 1.96 1.48 1.96 1-.02 2.9-2.34 4.06-3.88z"/><path class="st6" d="M116.58 18.44c0 .26 0 1 .51 1 1.32 0 2.57-.9 2.9-.9.32 0 .58.22.58.55 0 .32-.42.71-1.48 1.19-1.19.55-2.67.55-2.8.55-.68 1.93-2.16 4.47-4.41 4.47-.9 0-1.8-.68-1.8-2.06 0-2.99 2.51-5.86 4.76-5.86 1.19 0 1.74.58 1.74 1.06zm-5.15 4.79c0 .58.39.93.8.93 1.25 0 2.9-2.9 2.9-3.86 0-.1-.48-.26-.48-.68 0-.32.1-.58.1-.71 0-.06-.03-.1-.1-.1-1.39.02-3.22 2.33-3.22 4.42z"/></svg>