<svg version="1.0" xmlns="http://www.w3.org/2000/svg" width="938.667" height="938.667" viewBox="0 0 704 704"><path d="M339.9 2.4c-.2.2-2 .6-3.9.9-1.9.3-4.7.8-6.2 1.2-4.4.9-17 5.6-19.5 7.2-1.3.9-2.3 1.1-2.3.7 0-.5-.4-.4-.8.1-.4.6-2.9 2.5-5.7 4.2-2.7 1.8-6.5 4.6-8.3 6.3-1.8 1.6-3.7 3-4.3 3-.5 0-.9.3-.9.7 0 .5-1.5 2.4-3.3 4.3-1.8 1.9-4.9 5.8-6.8 8.6l-3.5 5-2.9-1.8c-3.7-2.2-17.2-7.5-21.1-8.3-1.6-.2-3.9-.7-5.1-.9-1.2-.3-5-.7-8.4-1.1-3.5-.4-6.6-.8-7-1.1-.4-.2-1 0-1.4.6-.4.7-1.2.7-2.4 0-1-.5-2-.8-2.2-.6-.2.2-2.9.7-5.9 1.1-3 .3-7.3 1.1-9.5 1.6s-4.5 1.1-5.2 1.2c-.7.2-1.6.6-1.9 1-.4.4-1.4.7-2.1.7-.8 0-3.3.9-5.5 2-2.3 1.1-4.6 2-5 2-.5 0-1.4.5-2.1 1-.7.6-3.9 2.7-7.2 4.8-15.8 10-28.6 26.2-35.3 44.7-1.2 3.3-2.4 7.1-2.6 8.5-.3 1.4-.5 2.5-.7 2.5-.1 0-.3.9-.5 2-.1 1.1-.5 3.3-.8 5-.2 1.6-.5 3.8-.5 4.9-.1 1.5-.7 1.7-3.6 1.4-1.9-.2-3.5-.2-3.5.2 0 .3-2.4.5-5.3.6-18.5.3-39.8 10.3-55.3 25.9-17.5 17.6-26.5 39.9-25.9 64.1.3 12 .9 15.6 4.9 28.9.4 1.2 1.8 4.7 2.3 5.7.1.3-2.3 2.1-5.4 3.8-8.8 5-25.3 18.4-25.3 20.7 0 .3-.8 1.3-1.8 2.2-6.9 6.3-16.8 27.5-18.9 40.7-1.5 9.4-.6 28.3 1.6 36.9 4.2 15.9 12.3 29.8 23.9 41.1 5.1 5 7.1 7.6 6.6 8.8-.3.9-1 1.6-1.5 1.6s-.9.4-.9.9c0 .4-1.8 3.9-4 7.7-5.5 9.6-9.8 23.1-10.4 33.2-.2 1.7-.5 3.5-.9 3.8-.3.3-.2 1.6.3 2.8.4 1.3.4 2.9 0 3.6-.5.8-.6 1.8-.3 2.3.3.5.7 3.6.9 6.9 1.3 21.7 15.2 47.1 32.9 60.3 2.2 1.7 4.2 3.3 4.5 3.6.9 1.1 13.6 7.8 18.1 9.5 2.4.9 5.3 1.9 6.4 2.4 1.1.4 3.8 1.2 6 1.6 3.9.9 4 1 3.7 4.9-1.5 23.8 1.8 40.2 11.3 56 1.9 3.2 3.5 5.9 3.5 6.1 0 .6 3.9 5.1 9.5 11.2 13.3 14.4 31.9 24 52 27 9.5 1.4 28.2.4 35.2-1.9 3.6-1.1 5.3-.6 5.3 1.7 0 2 8.1 18.6 10 20.4.3.3 1.8 2.3 3.5 4.5 5 6.9 16.3 17.1 23.5 21.4 6.6 3.8 24 11.5 24 10.6 0-.3 1-.1 2.3.4 6.9 2.6 25.6 3.3 36.2 1.4 17.4-3.2 33.9-11.1 45.2-21.6l3.2-3 4.8 4c17.7 14.5 35.8 21.4 57.8 21.8 9.2.1 16.8-.8 24.2-3.1 2.9-.9 5.8-1.7 6.5-1.8 3-.6 15.1-6.7 20.9-10.7 6-4 16.6-13.9 21.6-20.1 3.4-4.2 9.7-15.7 11.8-21.6 1-2.8 2.1-5.2 2.5-5.2.3 0 2.1.5 4 1 7.5 2.2 25.2 3.1 35.5 1.8 13.8-1.8 30.1-8.8 41.5-17.9 17.5-13.8 30.5-35.7 33.7-56.8.9-5.9.9-21.7.1-25.8-.7-2.8-.4-3.2 2.2-4.2 1.7-.5 3-.7 3-.4 0 .3.6.1 1.3-.4.6-.6 2.6-1.3 4.2-1.7 5.8-1.4 15.6-6.2 22.4-11 2.4-1.7 5-3.6 5.9-4.1.8-.6 3.8-3.3 6.6-6 30.8-29.8 35.8-77.6 12-113.9l-3.2-4.8 6-6.1c8.9-8.9 19.1-25.8 21.3-35.2.2-.6.8-3 1.5-5.5s1.3-5.4 1.4-6.5c.1-1.1.4-2.5.7-3 .7-1.1.3-23.5-.4-28-4.7-27.4-22.7-52.1-46.9-64.4l-4.6-2.3 2.4-6.5c1.3-3.6 2.3-6.8 2.2-7.2 0-.3.1-.8.2-1.1 2.2-5.7 3.1-24.3 1.7-35-1.5-11.1-8.4-29.5-13.1-35-.8-.8-1.5-2-1.7-2.7-.8-2.4-13.1-15.3-18.7-19.6-15.4-11.7-34.6-18.6-52.4-18.9-3.8-.1-7-.4-7.2-.7-.2-.3-.7-2.6-1-5.1-.9-6.3-1-6.7-3-13.5-1-3.3-1.8-6.1-1.7-6.3.5-1-8.8-17.3-13-22.8-4.9-6.5-6.5-8.2-14-14.9-6-5.3-23-14.9-28.9-16.2-3.1-.7-3.5-.9-4.5-1.5-.9-.5-4.9-1.3-12.3-2.4-4.1-.6-21.4-.5-24.2.1-1.4.3-4.1.8-6 1.1-4.9.8-17.5 5.2-23.4 8.1-4.3 2.2-5 2.3-5.8.9-.5-.8-1.5-2.2-2.3-3-.8-.8-1.5-1.9-1.5-2.3 0-1.5-12.5-13.8-19.2-18.8-6.3-4.7-21.2-12.5-24-12.5-.8 0-1.8-.3-2.2-.7-1.6-1.7-12.8-3.4-24.7-3.8-6.9-.3-12.8-.3-13-.1zm37.6 96.9c1.1.3 4.3.8 7 1.1 2.8.4 6.1.8 7.5 1.1 1.4.2 4.3.7 6.5 1 2.2.3 4.7.7 5.5 1 .8.2 2.6.6 4 .9 11.9 2.2 41.6 12.7 54.2 19.3 2.9 1.5 5.5 2.7 5.8 2.8 2 .2 25.3 14.3 25.8 15.7.2.4.9.8 1.6.8.7 0 2.1.9 3.1 2s2.4 2 3.1 2c.7 0 1.4.3 1.6.7.2.5 2.3 2.4 4.8 4.3 7.3 5.6 8 6.2 14.8 12.5 5.5 5.1 10.1 9.7 21.2 21.4.8.9 3.8 4.5 6.5 8.1 2.8 3.6 5.3 6.7 5.6 7 .7.7 12.1 17.9 13.5 20.5 2.1 3.9 5.6 10 7.6 13.2 1.1 1.8 1.7 3.3 1.4 3.3-.4 0 .1 1.2 1.1 2.7 4.2 6.4 15.4 36.8 17.9 48.3.8 3.7 1.2 5.5 1.4 5.5.1 0 .3.9.5 2s1 5.8 1.9 10.5c1.9 10.2 2.4 14.1 3.3 24 1.5 17.4.3 47.9-2.3 61-.3 1.4-.7 3.8-1 5.5-.3 1.6-1.4 6.8-2.5 11.5-3.3 13.7-3.2 13.5-4.1 16-.3.8-2 5.7-3.8 10.9-5.1 15.2-12.2 30.4-21.9 46.6-3.6 6-6.9 11.4-7.3 12-.5.5-1.7 2.1-2.8 3.4-1.1 1.3-2 2.8-2 3.3 0 .4-.8 1.6-1.7 2.6-1 1-3.1 3.6-4.8 5.7-15.7 20.9-44.6 46.3-68.5 60.1-4.7 2.7-8.6 5.2-8.8 5.6-.2.5-.8.8-1.2.8-.5 0-6 2.4-12.2 5.3-13.9 6.6-28.5 12-41 15.3-.5.1-.9.2-1 .4-.4.2-2.5.7-6.3 1.5-1.6.3-3.8.8-4.7 1.1-2 .6-5.1 1.2-9.7 2-1.8.3-4.3.8-5.5 1-1.1.2-4.1.7-6.6.9-2.5.3-6.1.8-8 1.1-1.9.3-12.3.7-23 .8-17.3.2-24.4-.2-43-2.8-6.1-.8-18.3-3.5-25.5-5.6-3.8-1.1-7.7-2.2-8.5-2.4-3.9-1-19.4-6.8-27-10.1-15.4-6.6-39.5-20.5-50.1-28.9-1.5-1.2-4.4-3.5-6.5-5.1-26.9-21.3-51.4-51.2-67.4-82.5-8.9-17.5-19.1-45-21.3-57.5-.3-1.7-.8-4-1.1-5.3-1.2-4.6-2-9.3-3.1-17.2-.2-1.4-.6-4.4-1-6.8-2-12.4-2-47.7-.1-59.2.2-1.4.8-4.8 1.2-7.5.4-2.8.8-5.2.9-5.5 0-.3.5-2.8 1-5.5 1-6 .9-5.5 3-13.5l2-8c.4-1.9 5.4-16.7 6.8-20 .5-1.4 1.2-3.4 1.4-4.4.2-1.1.9-2.6 1.5-3.4.7-.8 1.3-2 1.4-2.6.2-1.4 7.8-16.9 12.6-25.5 4.3-7.9 17-26.2 24.2-35.1 7.1-8.7 27.1-29 33.6-34 2.5-1.9 4.7-3.7 5-4 .3-.3 2.1-1.7 4-3s3.7-2.7 4-3c1.2-1.3 16.1-11 17-11 .6 0 1-.3 1-.8 0-.4 1-1.2 2.3-1.8 1.2-.7 7.4-3.8 13.7-7.1 6.3-3.2 13.5-6.7 16-7.7s5.9-2.4 7.5-3.1c7.8-3.4 32.4-10.6 41.5-12.1 1.4-.3 4.8-.9 7.5-1.4 6.3-1.2 11.1-1.8 20.5-2.6 4.1-.4 7.6-.8 7.8-.9.5-.5 38.5.3 40.7.8z"/><path d="M191 244c-2.2 2.2-2.3 2.7-2 8 .4 6.7.7 8.8 1.5 9.9.3.7.1 1.9-.6 2.7-1 1.2-.9 1.3.7.8 3.3-1.2 1.1.3-2.9 2-2.1.8-3.6 1.2-3.3.7.3-.4-.1-.8-.9-.8s-1.2.3-1 .7c.2.4-.7 1.2-2.1 1.9-1.5.6-2.3.7-1.9.1 1.3-2-1.4-.9-2.9 1.2-2.1 2.9-2 5.1.2 7.7 2 2.5 5.7 3.2 9.2 1.9 2.9-1.1 5.4-1.8 9.3-2.5 2-.4 2.7-.1 2.7 1.1 0 .9.5 1.6 1 1.6 2.1 0 .8 1.6-4 5-5.8 4-8 6.9-7.5 9.6.2 1 .4 2.2.4 2.6.2 1.6 3.4 3.8 5.5 3.8 1.8 0 9.3-4.5 11.6-7 1.9-2 4-2.9 5.3-2.4 1.8.6 1.4 2.5-1.5 6.6-1.8 2.5-2.3 5-1.9 8.9.1 2 4.3 3.9 7.2 3.4 1.2-.2 2.2-.6 2.3-.7 1.6-2.9 5.3-7.8 5.9-7.8.4 0 .7-.7.7-1.5 0-1.6.4-1.6 9.3.7 5.1 1.2 17 .8 23.5-.8 5.2-1.4 14.5-5.6 16.8-7.8.7-.6 2.9-2.4 5-4.1 9.7-7.7 16.2-21 17.9-36.2.7-6.3-3.9-10.4-9-8.1-2.8 1.2-3.2 2.2-4 9.3-1.9 16.7-12.5 29-29.2 34-5.6 1.7-18.4 1.4-23.8-.5-9.1-3.3-18.6-11.4-22.8-19.5-2.4-4.7-4.5-14-4.1-18 .2-2.8-.2-4.2-2.1-6.1-2.9-2.9-5.8-3.1-8.5-.4zm220.5 5c-4 4.4-1.3 20.8 5.2 32 6 10.2 22 22.1 33.3 24.7 4.1.9 21 1 26 0 3.4-.6 3.6-.4 7 4.5 4.4 6.5 7.8 8.1 11.7 5.2 3.6-2.7 3.9-6.2.8-10.4-2.8-3.8-3.1-5.3-1.2-6.9 1.1-.8 1.9-.5 3.8 1.5 3.8 4.1 9.6 8.5 11.8 8.9 2.8.5 6-2.4 6.7-6.1.5-2.7.1-3.6-3.5-6.9-2.2-2.1-5-4.4-6.1-5.2-2.5-1.8-2.5-3.5-.2-5.6 1.8-1.7 5.1-1.2 10.4 1.4 2.7 1.4 7.5 1.1 9.2-.6 4.1-4.2 2-9.9-4.5-12.2-9.3-3.1-9-2.8-7.5-7 2.1-6.2 2-13.6-.1-15.5-5.1-4.4-10.3-1.9-11 5.3-1.1 11.7-6.3 22.7-12.7 27.4-1.6 1.1-3.4 2.5-4.1 3.2-2.3 2.2-13.3 6.3-18.7 6.9-6 .8-6 .8-10.8.1-6.9-1-9.5-2-14.5-5.1-11-6.9-17.7-17.9-19.2-32.1-.7-6.9-2.5-9.5-6.7-9.5-2 0-4 .8-5.1 2zM210.4 378.5c-3.7 1.5-4.2 2.9-3.8 12 .4 10.3.9 14 4 29.2 1.6 7.8 10.6 29.8 14.8 35.8 1.2 1.6 1.9 3 1.6 3-.8 0 10.2 15.4 14.6 20.5 9.1 10.5 24.7 23.9 33.9 29.2 6.4 3.7 18.8 9.9 23.3 11.7 2.6 1 5.6 2.1 6.7 2.6 1.1.4 2.5.9 3 1 .6.2 3.7 1 7 1.8 19.4 5.1 42.6 6.2 60 3 1.7-.3 4-.7 5.2-.8 1.1-.2 3-.6 4.1-.9 1.1-.4 3.1-.9 4.4-1.2 2.8-.6 3.8-.9 5.8-1.7.8-.3 4-1.3 7-2.4 9.3-3.1 31.9-14.9 35-18.3.3-.3 3-2.4 6-4.6 16-11.9 31.2-30.7 41.5-51.3 4.3-8.6 10.8-26.2 11.9-32.6 2.1-11.2 4-26.6 3.8-30.9-.1-2.3-2.7-5.2-5.3-5.9-1-.3-3.3.5-5.1 1.7-2.9 1.9-3.3 2.6-3.4 7.6-.3 8-2.6 26.5-3.4 26.5-.1 0-.4 1.1-.7 2.5-.7 3.8-1.1 5.5-1.3 5.7-.2.2-.3.6-.4 1-1.3 5.7-8 21.3-12 27.8-3.5 5.7-9.1 14-11.1 16.5-3.1 4-20.8 21.3-23.4 23-1.3.8-2.9 1.9-3.5 2.5-9.3 8.1-32.5 18.7-48.1 22-12.6 2.7-18.4 3.3-32.5 3-8.5-.1-16.6-.6-18-.9-1.4-.3-3.8-.9-5.5-1.2-9.4-1.6-20.3-5.4-31.5-10.7-4.7-2.3-8.9-4.5-9.5-4.9-2.5-2.1-8.7-5.8-9.5-5.8-.6 0-1-.4-1-.8s-1.3-1.5-2.9-2.5c-3.3-2-20.7-18.9-23.6-23.1-1.1-1.5-2.5-3.4-3.2-4.1-5.7-6.1-18.2-31.2-20.8-42-.1-.6-.5-1.7-.8-2.5-.5-1.3-1-3.7-3.2-15.5-.3-1.7-.8-7.2-1-12.4-.3-5.1-1-10-1.6-10.8-2.3-2.6-4.3-3.2-7.5-1.8z"/></svg>