<svg width="48" height="30" fill="none" xmlns="http://www.w3.org/2000/svg"><path d="M44.211 1.25c1.39 0 2.526 1.125 2.526 2.5v22.5c0 1.375-1.137 2.5-2.526 2.5H3.79c-1.39 0-2.526-1.125-2.526-2.5V3.75c0-1.375 1.137-2.5 2.526-2.5h40.421z" fill="#FF71BE"/><path d="M27.01 12.141c0 2.085-1.487 3.573-3.564 3.573h-1.957a.17.17 0 00-.151.1.156.156 0 00-.013.061v2.74a.161.161 0 01-.164.161h-1.37a.165.165 0 01-.115-.047.161.161 0 01-.048-.115V8.733a.158.158 0 01.1-.15.164.164 0 01.064-.013h3.663c2.068 0 3.554 1.488 3.554 3.573v-.002zm-1.708 0c0-1.197-.832-2.072-1.958-2.072h-1.855a.166.166 0 00-.151.1.16.16 0 00-.013.062v3.813a.157.157 0 00.048.115.16.16 0 00.116.047h1.855c1.126.007 1.958-.868 1.958-2.065zm2.114 4.74a1.892 1.892 0 01.817-1.647c.535-.395 1.37-.6 2.596-.643l1.305-.045v-.378c0-.76-.518-1.08-1.349-1.08s-1.358.29-1.478.763a.159.159 0 01-.158.113h-1.29a.165.165 0 01-.16-.115.154.154 0 01-.005-.069c.192-1.122 1.142-1.975 3.15-1.975 2.138 0 2.91.979 2.91 2.845v3.965a.162.162 0 01-.167.161h-1.301a.165.165 0 01-.117-.047.161.161 0 01-.048-.115v-.295a.12.12 0 00-.077-.114.127.127 0 00-.135.028c-.391.417-1.02.718-2.03.718-1.484 0-2.463-.758-2.463-2.07zm4.718-.86v-.307l-1.691.087c-.89.045-1.409.408-1.409 1.02 0 .555.475.863 1.306.863 1.128 0 1.794-.6 1.794-1.663zm2.925 5.75v-1.148a.16.16 0 01.062-.125.168.168 0 01.137-.034c.2.036.401.055.605.055.348.019.693-.079.978-.278a1.53 1.53 0 00.594-.817l.085-.264a.165.165 0 000-.11l-2.71-6.839a.161.161 0 01.076-.206.167.167 0 01.079-.019h1.313a.168.168 0 01.156.107l1.839 4.823a.163.163 0 00.158.11.169.169 0 00.158-.11l1.598-4.81a.163.163 0 01.159-.112h1.359c.04 0 .08.015.11.042a.167.167 0 01.057.103.166.166 0 01-.01.079l-2.9 7.595c-.666 1.766-1.81 2.216-3.069 2.216a2.495 2.495 0 01-.709-.083.167.167 0 01-.126-.175h.002zM10.826 8.001a6.814 6.814 0 00-4.652 1.783.288.288 0 00-.037.387l.78 1.05a.296.296 0 00.22.123.302.302 0 00.238-.089c.455-.447.994-.8 1.588-1.038a4.873 4.873 0 011.87-.35c2.678 0 4.077 1.98 4.077 3.938 0 2.125-1.47 3.623-3.582 3.651-1.631 0-2.862-1.062-2.862-2.467a2.365 2.365 0 01.9-1.85.288.288 0 00.043-.405l-.822-1.019a.298.298 0 00-.428-.042c-.503.399-.91.904-1.19 1.478a4.201 4.201 0 00-.425 1.838c0 2.419 2.09 4.315 4.768 4.33h.038c3.18-.04 5.478-2.355 5.478-5.519 0-2.809-2.105-5.8-6.002-5.8z" fill="#fff"/></svg>