<svg viewBox="0 0 40 40" fill="none" xmlns="http://www.w3.org/2000/svg"><circle cx="20" cy="20" r="19.5" fill="#ED40A9" stroke="#fff"/><g clip-path="url(#clip0)"><path d="M17.402 22.468c.107-.133.161-.212.227-.28 3.058-3.12 6.117-6.24 9.176-9.358.765-.78 1.612-.78 2.375 0 .182.186.367.37.546.558.636.671.636 1.571-.01 2.236-.95.98-1.909 1.95-2.864 2.924a33343 33343 0 01-8.643 8.817c-.32.327-.679.485-1.119.33a1.18 1.18 0 01-.425-.282c-1.86-1.888-3.715-3.779-5.567-5.672-.648-.663-.645-1.569-.008-2.236.213-.222.428-.442.646-.659.646-.637 1.538-.641 2.176.005a692.09 692.09 0 013.298 3.36c.068.082.133.168.192.257z" fill="#fff"/></g><defs><clipPath id="clip0"><path fill="#fff" transform="translate(10.612 12.245)" d="M0 0h19.592v15.51H0z"/></clipPath></defs></svg>