<svg version="1.1" id="Layer_1" xmlns="http://www.w3.org/2000/svg" x="0" y="0" viewBox="0 0 1011 361" xml:space="preserve"><style>.st1{fill:#ffb2e0}</style><path d="M15 342.6l-4 1.6-3.6-2.4c-.4-.2-.8-.3-1.2 0-.4.2-.6.6-.6 1.1L6 347l-3.3 2.7c-.3.3-.5.7-.4 1.1.1.4.4.8.8.9l4.1 1 1.5 4c.2.4.5.7 1 .7.4 0 .8-.2 1.1-.5l2.3-3.6 4.3-.2c.4 0 .7-.2.9-.5 0 0 0-.1.1-.1.2-.4.1-.9-.2-1.2l-2.7-3.3 1.1-4.1c.1-.4 0-.9-.3-1.1-.5-.3-.9-.4-1.3-.2z" fill="#ff71be"/><path class="st1" d="M120 4.6l-4 1.6-3.6-2.4c-.4-.2-.8-.3-1.2 0-.4.2-.6.6-.6 1.1l.3 4.2-3.3 2.7c-.3.3-.5.7-.4 1.1.1.4.4.8.8.9l4.1 1 1.5 4c.2.4.5.7 1 .7.4 0 .8-.2 1.1-.5l2.3-3.6 4.3-.2c.4 0 .7-.2.9-.5l.1-.1c.2-.4.1-.9-.2-1.2l-2.7-3.3 1.1-4.1c.1-.4 0-.9-.3-1.1-.4-.4-.8-.5-1.2-.3z"/><path d="M644.8 68.8c.6-1.8-.4-3.7-2.2-4.2h-.2l.1-.1c1.1-1.5.8-3.6-.8-4.7-1.5-1.1-3.6-.7-4.8.8l-.1.1-.1-.1c-1.1-1.5-3.2-1.8-4.8-.7-1.5 1.1-1.8 3.2-.7 4.7l.1.1c-.1 0-.1 0-.2.1-1.8.6-2.8 2.5-2.2 4.2.6 1.8 2.5 2.7 4.3 2.2 0 0 .1 0 .1-.1v.2c0 1.9 1.5 3.4 3.4 3.4s3.4-1.5 3.4-3.4v-.1s.1 0 .1.1c2.1.2 4.1-.8 4.6-2.5z" fill="#b7ebe7"/><path fill="none" d="M557 322h16v16h-16z"/><path d="M565 338c4.4 0 8-3.6 8-8s-3.6-8-8-8-8 3.6-8 8 3.6 8 8 8z" fill="#ffef96"/><path d="M369.5 243.1c.8 1.2.5 2.8-.6 3.6l-10.8 7.5c-1.2.8-2.8.5-3.6-.6-.8-1.2-.5-2.8.6-3.6l10.8-7.5c1.2-.9 2.8-.6 3.6.6z" fill="#ffce9e"/><path class="st1" d="M998.1 104.2c1.1-.9 2.7-.7 3.6.4l8.2 10.3c.9 1.1.7 2.8-.4 3.7-1.1.9-2.7.7-3.6-.4l-8.2-10.3c-.9-1.1-.7-2.8.4-3.7z"/></svg>