<svg width="48" height="30" fill="none" xmlns="http://www.w3.org/2000/svg"><path d="M44.211 1.25c1.39 0 2.526 1.125 2.526 2.5v22.5c0 1.375-1.137 2.5-2.526 2.5H3.79c-1.39 0-2.526-1.125-2.526-2.5V3.75c0-1.375 1.137-2.5 2.526-2.5h40.421z" fill="#fff"/><path d="M35.748 12.625h-.379c-.505 1.25-.884 1.875-1.263 3.75h2.4c-.38-1.875-.38-2.75-.758-3.75zM39.411 20h-2.147c-.127 0-.127 0-.253-.125l-.253-1.125-.126-.25h-3.031c-.127 0-.253 0-.253.25l-.379 1.125c0 .125-.126.125-.126.125H30.19l.253-.625 3.663-8.5c0-.625.379-.875 1.01-.875h1.895c.127 0 .253 0 .253.25l1.768 8.125c.127.5.253.875.253 1.375.126.125.126.125.126.25zm-16.926-.375l.505-2.25c.126 0 .253.125.253.125.884.375 1.768.625 2.652.5.253 0 .632-.125.885-.25.631-.25.631-.875.126-1.375-.253-.25-.632-.375-1.01-.625-.506-.25-1.011-.5-1.39-.875-1.516-1.25-1.01-3-.126-3.875.758-.5 1.136-1 2.147-1 1.516 0 3.158 0 3.916.25h.126c-.126.75-.253 1.375-.505 2.125-.632-.25-1.263-.5-1.895-.5-.379 0-.758 0-1.137.125-.252 0-.379.125-.505.25a.6.6 0 000 .875l.631.5c.506.25 1.011.5 1.39.75.632.375 1.263 1 1.39 1.75C30.19 17.25 29.81 18.25 28.8 19c-.632.5-.885.75-1.769.75-1.768 0-3.158.125-4.294-.25-.127.25-.127.25-.253.125zM18.064 20c.126-.875.126-.875.252-1.25.632-2.75 1.264-5.625 1.769-8.375.126-.25.126-.375.379-.375h2.274a37.235 37.235 0 01-.885 4c-.379 1.875-.758 3.75-1.263 5.625 0 .25-.126.25-.379.25L18.064 20zM6.316 10.25c0-.125.253-.25.38-.25h4.294c.632 0 1.137.375 1.263 1l1.137 5.5c0 .125 0 .125.126.25 0-.125.127-.125.127-.125l2.652-6.375c-.126-.125 0-.25.127-.25h2.652c0 .125 0 .125-.126.25l-3.916 9.125c-.126.25-.126.375-.252.5-.127.125-.38 0-.632 0h-1.895c-.126 0-.252 0-.252-.25l-2.021-7.75c-.253-.25-.632-.625-1.137-.75-.758-.375-2.148-.625-2.4-.625l-.127-.25z" fill="#FF71BE"/></svg>