<svg width="16" height="20" viewBox="0 0 16 20" fill="none" xmlns="http://www.w3.org/2000/svg">
<path d="M7.99967 1.6665C6.23156 1.6665 4.53587 2.36888 3.28563 3.61913C2.03539 4.86937 1.33301 6.56506 1.33301 8.33317C1.33301 9.90984 1.66801 10.9415 2.58301 12.0832L7.99967 18.3332L13.4163 12.0832C14.3313 10.9415 14.6663 9.90984 14.6663 8.33317C14.6663 6.56506 13.964 4.86937 12.7137 3.61913C11.4635 2.36888 9.76778 1.6665 7.99967 1.6665Z" fill="#FF71BE" stroke="#FF71BE" stroke-width="2" stroke-linecap="round" stroke-linejoin="round"/>
<path d="M8 10.833C9.38071 10.833 10.5 9.71372 10.5 8.33301C10.5 6.9523 9.38071 5.83301 8 5.83301C6.61929 5.83301 5.5 6.9523 5.5 8.33301C5.5 9.71372 6.61929 10.833 8 10.833Z" fill="white"/>
</svg>
